<?xml version="1.0" standalone="no"?>
<mlt LC_NUMERIC="C" version="7.5.0" title="Shotcut version 21.12.24" producer="main_bin">
  <profile description="automatic" width="1920" height="1080" progressive="1" sample_aspect_num="1" sample_aspect_den="1" display_aspect_num="16" display_aspect_den="9" frame_rate_num="4815000" frame_rate_den="160477" colorspace="709"/>
  <chain id="chain0" out="00:00:10.732">
    <property name="length">00:00:10.765</property>
    <property name="eof">pause</property>
    <property name="resource">D:/Dropbox2022/Dropbox/2023/Editar/30 Dias + Fitness/Semana4/VID_20230325_140351.mp4</property>
    <property name="mlt_service">avformat-novalidate</property>
    <property name="seekable">1</property>
    <property name="audio_index">1</property>
    <property name="video_index">0</property>
    <property name="mute_on_pause">0</property>
    <property name="shotcut:hash">ed757bb3c5467edc7ec3cb360f717cd5</property>
    <property name="ignore_points">1</property>
    <property name="creation_time">2023-03-25T17:04:03</property>
    <property name="xml">was here</property>
    <property name="shotcut:caption">VID_20230325_140351.mp4</property>
  </chain>
  <chain id="chain1" out="00:00:25.463">
    <property name="length">00:00:25.496</property>
    <property name="eof">pause</property>
    <property name="resource">D:/Dropbox2022/Dropbox/2023/Editar/30 Dias + Fitness/Semana4/VID_20230325_142419.mp4</property>
    <property name="mlt_service">avformat-novalidate</property>
    <property name="seekable">1</property>
    <property name="audio_index">1</property>
    <property name="video_index">0</property>
    <property name="mute_on_pause">0</property>
    <property name="xml">was here</property>
    <property name="shotcut:hash">b3da7c95dd83c7d555f8722853b3a2a2</property>
    <property name="ignore_points">1</property>
    <property name="shotcut:caption">VID_20230325_142419.mp4</property>
  </chain>
  <chain id="chain2" out="00:00:31.529">
    <property name="length">00:00:31.562</property>
    <property name="eof">pause</property>
    <property name="resource">D:/Dropbox2022/Dropbox/2023/Editar/30 Dias + Fitness/Semana4/VID_20230325_142811.mp4</property>
    <property name="mlt_service">avformat-novalidate</property>
    <property name="seekable">1</property>
    <property name="audio_index">1</property>
    <property name="video_index">0</property>
    <property name="mute_on_pause">0</property>
    <property name="xml">was here</property>
    <property name="shotcut:hash">e7eb05add0c757b735cae5d2b909feef</property>
    <property name="ignore_points">1</property>
    <property name="shotcut:caption">VID_20230325_142811.mp4</property>
  </chain>
  <chain id="chain3" out="00:32:50.393">
    <property name="length">00:32:50.426</property>
    <property name="eof">pause</property>
    <property name="resource">D:/Dropbox2022/Dropbox/2023/Editar/30 Dias + Fitness/Semana4/FUNK BRASILERO   CARDIO DANCE FITNESS ✅�.mp3</property>
    <property name="mlt_service">avformat-novalidate</property>
    <property name="seekable">1</property>
    <property name="audio_index">0</property>
    <property name="video_index">-1</property>
    <property name="mute_on_pause">0</property>
    <property name="xml">was here</property>
    <property name="shotcut:hash">415e12090c044cdb9d6fc535b7ae5562</property>
    <property name="ignore_points">1</property>
    <property name="shotcut:caption">FUNK BRASILERO   CARDIO DANCE FITNESS ✅�.mp3</property>
  </chain>
  <chain id="chain4" out="01:07:45.660">
    <property name="length">01:07:45.693</property>
    <property name="eof">pause</property>
    <property name="resource">D:/Dropbox2022/Dropbox/2023/Editar/30 Dias + Fitness/Semana4/Zumba u0026 Fitness 2020 Vol 2   Latin Hits And Reggaeton From 100 To 128 BPM For Gym And Danc.mp3</property>
    <property name="mlt_service">avformat-novalidate</property>
    <property name="seekable">1</property>
    <property name="audio_index">0</property>
    <property name="video_index">-1</property>
    <property name="mute_on_pause">0</property>
    <property name="xml">was here</property>
    <property name="shotcut:hash">871f57995d83b50c53dd138569ffc317</property>
    <property name="ignore_points">1</property>
    <property name="shotcut:caption">Zumba u0026 Fitness 2020 Vol 2   Latin Hits And Reggaeton From 100 To 128 BPM For Gym And Danc.mp3</property>
  </chain>
  <chain id="chain5" out="00:00:05.633">
    <property name="length">00:00:05.666</property>
    <property name="eof">pause</property>
    <property name="resource">D:/Dropbox2022/Dropbox/2023/Editar/30 Dias + Fitness/Contagem regressiva 5 segundos.mp4</property>
    <property name="mlt_service">avformat-novalidate</property>
    <property name="seekable">1</property>
    <property name="audio_index">1</property>
    <property name="video_index">0</property>
    <property name="mute_on_pause">0</property>
    <property name="xml">was here</property>
    <property name="shotcut:hash">8446032aed2761fcbb76f01fb088108e</property>
    <property name="ignore_points">1</property>
    <property name="shotcut:caption">Contagem regressiva 5 segundos.mp4</property>
  </chain>
  <chain id="chain6" out="00:00:31.129">
    <property name="length">00:00:31.162</property>
    <property name="eof">pause</property>
    <property name="resource">D:/Dropbox2022/Dropbox/2023/Editar/30 Dias + Fitness/Semana4/Preguiça é pecado.mp4</property>
    <property name="mlt_service">avformat-novalidate</property>
    <property name="seekable">1</property>
    <property name="audio_index">1</property>
    <property name="video_index">0</property>
    <property name="mute_on_pause">0</property>
    <property name="xml">was here</property>
    <property name="shotcut:hash">afa63acb62a0ad6260022aae81636f9e</property>
  </chain>
  <chain id="chain7" out="00:00:31.129">
    <property name="length">00:00:31.162</property>
    <property name="eof">pause</property>
    <property name="resource">D:/Dropbox2022/Dropbox/2023/Editar/30 Dias + Fitness/Semana4/Cronometro 30 segundos.mp4</property>
    <property name="mlt_service">avformat-novalidate</property>
    <property name="seekable">1</property>
    <property name="audio_index">1</property>
    <property name="video_index">0</property>
    <property name="mute_on_pause">0</property>
    <property name="xml">was here</property>
    <property name="shotcut:hash">f4e1a6ff5963b2f62ac13e078d810f09</property>
  </chain>
  <chain id="chain8" out="00:00:31.062">
    <property name="length">00:00:31.096</property>
    <property name="eof">pause</property>
    <property name="resource">D:/Dropbox2022/Dropbox/2023/Editar/30 Dias + Fitness/Semana3/Cronometro descança 30 segundos.mp4</property>
    <property name="mlt_service">avformat-novalidate</property>
    <property name="seekable">1</property>
    <property name="audio_index">1</property>
    <property name="video_index">0</property>
    <property name="mute_on_pause">0</property>
    <property name="xml">was here</property>
    <property name="shotcut:hash">75291a6e2b91d3f7a707b80f6cc4081a</property>
  </chain>
  <chain id="chain9" out="00:00:31.062">
    <property name="length">00:00:31.096</property>
    <property name="eof">pause</property>
    <property name="resource">D:/Dropbox2022/Dropbox/2023/Editar/30 Dias + Fitness/Semana3/Cronometro chamda última sequencia.mp4</property>
    <property name="mlt_service">avformat-novalidate</property>
    <property name="seekable">1</property>
    <property name="audio_index">1</property>
    <property name="video_index">0</property>
    <property name="mute_on_pause">0</property>
    <property name="xml">was here</property>
    <property name="shotcut:hash">d4447d424930359bc8d77f348596ea23</property>
  </chain>
  <chain id="chain10" out="00:00:28.763">
    <property name="length">00:00:28.796</property>
    <property name="eof">pause</property>
    <property name="resource">D:/Dropbox2022/Dropbox/2023/Editar/30 Dias + Fitness/Semana4/VID_20230325_125931.mp4</property>
    <property name="mlt_service">avformat-novalidate</property>
    <property name="seekable">1</property>
    <property name="audio_index">1</property>
    <property name="video_index">0</property>
    <property name="mute_on_pause">0</property>
    <property name="xml">was here</property>
    <property name="shotcut:hash">682b474f30c73002cda35b60af55d430</property>
    <property name="ignore_points">1</property>
    <property name="shotcut:caption">VID_20230325_125931.mp4</property>
  </chain>
  <chain id="chain11" out="00:00:54.825">
    <property name="length">00:00:54.859</property>
    <property name="eof">pause</property>
    <property name="resource">D:/Dropbox2022/Dropbox/2023/Editar/30 Dias + Fitness/Semana4/VID_20230325_130025.mp4</property>
    <property name="mlt_service">avformat-novalidate</property>
    <property name="seekable">1</property>
    <property name="audio_index">1</property>
    <property name="video_index">0</property>
    <property name="mute_on_pause">0</property>
    <property name="xml">was here</property>
    <property name="shotcut:hash">33e6d489e3c0f077c94464053ddfecc5</property>
    <property name="ignore_points">1</property>
    <property name="shotcut:caption">VID_20230325_130025.mp4</property>
  </chain>
  <chain id="chain12" out="00:00:15.831">
    <property name="length">00:00:15.864</property>
    <property name="eof">pause</property>
    <property name="resource">D:/Dropbox2022/Dropbox/2023/Editar/30 Dias + Fitness/Semana4/VID_20230325_130248.mp4</property>
    <property name="mlt_service">avformat-novalidate</property>
    <property name="seekable">1</property>
    <property name="audio_index">1</property>
    <property name="video_index">0</property>
    <property name="mute_on_pause">0</property>
    <property name="xml">was here</property>
    <property name="shotcut:hash">e4cff584c0c51b28b0aabf941fabe4e7</property>
    <property name="ignore_points">1</property>
    <property name="shotcut:caption">VID_20230325_130248.mp4</property>
  </chain>
  <chain id="chain13" out="00:00:08.032">
    <property name="length">00:00:08.066</property>
    <property name="eof">pause</property>
    <property name="resource">D:/Dropbox2022/Dropbox/2023/Editar/30 Dias + Fitness/Semana4/VID_20230325_130323.mp4</property>
    <property name="mlt_service">avformat-novalidate</property>
    <property name="seekable">1</property>
    <property name="audio_index">1</property>
    <property name="video_index">0</property>
    <property name="mute_on_pause">0</property>
    <property name="xml">was here</property>
    <property name="shotcut:hash">cb403e72d19f34e59496f4b98d507a7e</property>
    <property name="ignore_points">1</property>
    <property name="shotcut:caption">VID_20230325_130323.mp4</property>
  </chain>
  <chain id="chain14" out="00:00:22.430">
    <property name="length">00:00:22.463</property>
    <property name="eof">pause</property>
    <property name="resource">D:/Dropbox2022/Dropbox/2023/Editar/30 Dias + Fitness/Semana4/VID_20230325_130340.mp4</property>
    <property name="mlt_service">avformat-novalidate</property>
    <property name="seekable">1</property>
    <property name="audio_index">1</property>
    <property name="video_index">0</property>
    <property name="mute_on_pause">0</property>
    <property name="xml">was here</property>
    <property name="shotcut:hash">005de7114226b1b2dffeec6bd8788786</property>
    <property name="ignore_points">1</property>
    <property name="shotcut:caption">VID_20230325_130340.mp4</property>
  </chain>
  <chain id="chain15" out="00:00:40.128">
    <property name="length">00:00:40.161</property>
    <property name="eof">pause</property>
    <property name="resource">D:/Dropbox2022/Dropbox/2023/Editar/30 Dias + Fitness/Semana4/VID_20230325_130416.mp4</property>
    <property name="mlt_service">avformat-novalidate</property>
    <property name="seekable">1</property>
    <property name="audio_index">1</property>
    <property name="video_index">0</property>
    <property name="mute_on_pause">0</property>
    <property name="xml">was here</property>
    <property name="shotcut:hash">c488cdfc12dd847f438e591ca4845606</property>
    <property name="ignore_points">1</property>
    <property name="shotcut:caption">VID_20230325_130416.mp4</property>
  </chain>
  <chain id="chain16" out="00:00:27.429">
    <property name="length">00:00:27.463</property>
    <property name="eof">pause</property>
    <property name="resource">D:/Dropbox2022/Dropbox/2023/Editar/30 Dias + Fitness/Semana4/VID_20230325_130507.mp4</property>
    <property name="mlt_service">avformat-novalidate</property>
    <property name="seekable">1</property>
    <property name="audio_index">1</property>
    <property name="video_index">0</property>
    <property name="mute_on_pause">0</property>
    <property name="xml">was here</property>
    <property name="shotcut:hash">0a961fbd164c83602932eb635f6dc8df</property>
    <property name="ignore_points">1</property>
    <property name="shotcut:caption">VID_20230325_130507.mp4</property>
  </chain>
  <chain id="chain17" out="00:00:11.465">
    <property name="length">00:00:11.498</property>
    <property name="eof">pause</property>
    <property name="resource">D:/Dropbox2022/Dropbox/2023/Editar/30 Dias + Fitness/Semana4/VID_20230325_130724.mp4</property>
    <property name="mlt_service">avformat-novalidate</property>
    <property name="seekable">1</property>
    <property name="audio_index">1</property>
    <property name="video_index">0</property>
    <property name="mute_on_pause">0</property>
    <property name="xml">was here</property>
    <property name="shotcut:hash">f8f45441d9e6e67d4840616b3008f1f1</property>
    <property name="ignore_points">1</property>
    <property name="shotcut:caption">VID_20230325_130724.mp4</property>
  </chain>
  <chain id="chain18" out="00:01:46.693">
    <property name="length">00:01:46.727</property>
    <property name="eof">pause</property>
    <property name="resource">D:/Dropbox2022/Dropbox/2023/Editar/30 Dias + Fitness/Semana4/VID_20230325_131147.mp4</property>
    <property name="mlt_service">avformat-novalidate</property>
    <property name="seekable">1</property>
    <property name="audio_index">1</property>
    <property name="video_index">0</property>
    <property name="mute_on_pause">0</property>
    <property name="xml">was here</property>
    <property name="shotcut:hash">e3a45b35ddf8870bcc62eaef67866db4</property>
    <property name="ignore_points">1</property>
    <property name="shotcut:caption">VID_20230325_131147.mp4</property>
  </chain>
  <chain id="chain19" out="00:01:14.798">
    <property name="length">00:01:14.831</property>
    <property name="eof">pause</property>
    <property name="resource">D:/Dropbox2022/Dropbox/2023/Editar/30 Dias + Fitness/Semana4/VID_20230325_131528.mp4</property>
    <property name="mlt_service">avformat-novalidate</property>
    <property name="seekable">1</property>
    <property name="audio_index">1</property>
    <property name="video_index">0</property>
    <property name="mute_on_pause">0</property>
    <property name="xml">was here</property>
    <property name="shotcut:hash">7f50e139f5085ca2556849dd2def491f</property>
    <property name="ignore_points">1</property>
    <property name="shotcut:caption">VID_20230325_131528.mp4</property>
    <property name="shotcut:skipConvert">1</property>
  </chain>
  <chain id="chain20" out="00:01:16.631">
    <property name="length">00:01:16.664</property>
    <property name="eof">pause</property>
    <property name="resource">D:/Dropbox2022/Dropbox/2023/Editar/30 Dias + Fitness/Semana4/VID_20230325_131912.mp4</property>
    <property name="mlt_service">avformat-novalidate</property>
    <property name="seekable">1</property>
    <property name="audio_index">1</property>
    <property name="video_index">0</property>
    <property name="mute_on_pause">0</property>
    <property name="xml">was here</property>
    <property name="shotcut:hash">547021bf3a317d5ca3f1758d93c365d2</property>
    <property name="ignore_points">1</property>
    <property name="shotcut:caption">VID_20230325_131912.mp4</property>
  </chain>
  <chain id="chain21" out="00:01:55.359">
    <property name="length">00:01:55.392</property>
    <property name="eof">pause</property>
    <property name="resource">D:/Dropbox2022/Dropbox/2023/Editar/30 Dias + Fitness/Semana4/VID_20230325_132236.mp4</property>
    <property name="mlt_service">avformat-novalidate</property>
    <property name="seekable">1</property>
    <property name="audio_index">1</property>
    <property name="video_index">0</property>
    <property name="mute_on_pause">0</property>
    <property name="xml">was here</property>
    <property name="shotcut:hash">50e807b8938ccc89de3033ec78512b2d</property>
    <property name="ignore_points">1</property>
    <property name="shotcut:caption">VID_20230325_132236.mp4</property>
    <property name="shotcut:skipConvert">1</property>
  </chain>
  <chain id="chain22" out="00:02:21.964">
    <property name="length">00:02:21.997</property>
    <property name="eof">pause</property>
    <property name="resource">D:/Dropbox2022/Dropbox/2023/Editar/30 Dias + Fitness/Semana4/VID_20230325_132538.mp4</property>
    <property name="mlt_service">avformat-novalidate</property>
    <property name="seekable">1</property>
    <property name="audio_index">1</property>
    <property name="video_index">0</property>
    <property name="mute_on_pause">0</property>
    <property name="xml">was here</property>
    <property name="shotcut:hash">2a5aea7188dc9ddeae4b35ebcbc42cba</property>
    <property name="ignore_points">1</property>
    <property name="shotcut:caption">VID_20230325_132538.mp4</property>
  </chain>
  <chain id="chain23" out="00:01:59.458">
    <property name="length">00:01:59.491</property>
    <property name="eof">pause</property>
    <property name="resource">D:/Dropbox2022/Dropbox/2023/Editar/30 Dias + Fitness/Semana4/VID_20230325_133146.mp4</property>
    <property name="mlt_service">avformat-novalidate</property>
    <property name="seekable">1</property>
    <property name="audio_index">1</property>
    <property name="video_index">0</property>
    <property name="mute_on_pause">0</property>
    <property name="xml">was here</property>
    <property name="shotcut:hash">1951673e6fa858b77b44f0140c371ff0</property>
    <property name="ignore_points">1</property>
    <property name="shotcut:caption">VID_20230325_133146.mp4</property>
  </chain>
  <chain id="chain24" out="00:02:00.100">
    <property name="length">00:02:00.133</property>
    <property name="eof">pause</property>
    <property name="resource">D:/Dropbox2022/Dropbox/2023/Editar/30 Dias + Fitness/Semana4/VID_20230325_133436.mp4</property>
    <property name="mlt_service">avformat-novalidate</property>
    <property name="seekable">1</property>
    <property name="audio_index">1</property>
    <property name="video_index">0</property>
    <property name="mute_on_pause">0</property>
    <property name="xml">was here</property>
    <property name="shotcut:hash">ac5147026020bafaf3b56e38cec416ca</property>
    <property name="ignore_points">1</property>
    <property name="shotcut:caption">VID_20230325_133436.mp4</property>
  </chain>
  <chain id="chain25" out="00:01:49.926">
    <property name="length">00:01:49.960</property>
    <property name="eof">pause</property>
    <property name="resource">D:/Dropbox2022/Dropbox/2023/Editar/30 Dias + Fitness/Semana4/VID_20230325_133728.mp4</property>
    <property name="mlt_service">avformat-novalidate</property>
    <property name="seekable">1</property>
    <property name="audio_index">1</property>
    <property name="video_index">0</property>
    <property name="mute_on_pause">0</property>
    <property name="xml">was here</property>
    <property name="shotcut:hash">4fa35e459ab641a9d2349a41f606ba8c</property>
    <property name="ignore_points">1</property>
    <property name="shotcut:caption">VID_20230325_133728.mp4</property>
  </chain>
  <chain id="chain26" out="00:01:14.165">
    <property name="length">00:01:14.198</property>
    <property name="eof">pause</property>
    <property name="resource">D:/Dropbox2022/Dropbox/2023/Editar/30 Dias + Fitness/Semana4/VID_20230325_134121.mp4</property>
    <property name="mlt_service">avformat-novalidate</property>
    <property name="seekable">1</property>
    <property name="audio_index">1</property>
    <property name="video_index">0</property>
    <property name="mute_on_pause">0</property>
    <property name="xml">was here</property>
    <property name="shotcut:hash">52121efdf570d11104c32b8b6abc375b</property>
    <property name="ignore_points">1</property>
    <property name="shotcut:caption">VID_20230325_134121.mp4</property>
  </chain>
  <chain id="chain27" out="00:01:01.966">
    <property name="length">00:01:02.000</property>
    <property name="eof">pause</property>
    <property name="resource">D:/Dropbox2022/Dropbox/2023/Editar/30 Dias + Fitness/Semana4/VID_20230325_134405.mp4</property>
    <property name="mlt_service">avformat-novalidate</property>
    <property name="seekable">1</property>
    <property name="audio_index">1</property>
    <property name="video_index">0</property>
    <property name="mute_on_pause">0</property>
    <property name="xml">was here</property>
    <property name="shotcut:hash">0566afc18c1f6ffded50b4916b533bab</property>
    <property name="ignore_points">1</property>
    <property name="shotcut:caption">VID_20230325_134405.mp4</property>
  </chain>
  <chain id="chain28" out="00:01:20.430">
    <property name="length">00:01:20.464</property>
    <property name="eof">pause</property>
    <property name="resource">D:/Dropbox2022/Dropbox/2023/Editar/30 Dias + Fitness/Semana4/VID_20230325_135106.mp4</property>
    <property name="mlt_service">avformat-novalidate</property>
    <property name="seekable">1</property>
    <property name="audio_index">1</property>
    <property name="video_index">0</property>
    <property name="mute_on_pause">0</property>
    <property name="xml">was here</property>
    <property name="shotcut:hash">d2053f1cd4526b75e8333092a461ca52</property>
    <property name="ignore_points">1</property>
    <property name="shotcut:caption">VID_20230325_135106.mp4</property>
    <property name="shotcut:skipConvert">1</property>
  </chain>
  <chain id="chain29" out="00:00:21.630">
    <property name="length">00:00:21.664</property>
    <property name="eof">pause</property>
    <property name="resource">D:/Dropbox2022/Dropbox/2023/Editar/30 Dias + Fitness/Semana4/VID_20230325_135349.mp4</property>
    <property name="mlt_service">avformat-novalidate</property>
    <property name="seekable">1</property>
    <property name="audio_index">1</property>
    <property name="video_index">0</property>
    <property name="mute_on_pause">0</property>
    <property name="xml">was here</property>
    <property name="shotcut:hash">1649e3c261486523025c832d98a9984e</property>
    <property name="ignore_points">1</property>
    <property name="shotcut:caption">VID_20230325_135349.mp4</property>
  </chain>
  <chain id="chain30" out="00:00:42.361">
    <property name="length">00:00:42.394</property>
    <property name="eof">pause</property>
    <property name="resource">D:/Dropbox2022/Dropbox/2023/Editar/30 Dias + Fitness/Semana4/VID_20230325_135429.mp4</property>
    <property name="mlt_service">avformat-novalidate</property>
    <property name="seekable">1</property>
    <property name="audio_index">1</property>
    <property name="video_index">0</property>
    <property name="mute_on_pause">0</property>
    <property name="xml">was here</property>
    <property name="shotcut:hash">a06bb0bb6dc07b5d517d0ccd039e3528</property>
    <property name="ignore_points">1</property>
    <property name="shotcut:caption">VID_20230325_135429.mp4</property>
  </chain>
  <chain id="chain31" out="00:00:58.958">
    <property name="length">00:00:58.992</property>
    <property name="eof">pause</property>
    <property name="resource">D:/Dropbox2022/Dropbox/2023/Editar/30 Dias + Fitness/Semana4/VID_20230325_135700.mp4</property>
    <property name="mlt_service">avformat-novalidate</property>
    <property name="seekable">1</property>
    <property name="audio_index">1</property>
    <property name="video_index">0</property>
    <property name="mute_on_pause">0</property>
    <property name="xml">was here</property>
    <property name="shotcut:hash">49ae96ffe821a07eb43628d821227387</property>
    <property name="ignore_points">1</property>
    <property name="shotcut:caption">VID_20230325_135700.mp4</property>
  </chain>
  <chain id="chain32" out="00:02:12.632">
    <property name="length">00:02:12.665</property>
    <property name="eof">pause</property>
    <property name="resource">D:/Dropbox2022/Dropbox/2023/Editar/30 Dias + Fitness/Semana4/VID_20230325_135841.mp4</property>
    <property name="mlt_service">avformat-novalidate</property>
    <property name="seekable">1</property>
    <property name="audio_index">1</property>
    <property name="video_index">0</property>
    <property name="mute_on_pause">0</property>
    <property name="xml">was here</property>
    <property name="shotcut:hash">266470f2f955f467548dbff7c79bf4e6</property>
    <property name="ignore_points">1</property>
    <property name="shotcut:caption">VID_20230325_135841.mp4</property>
    <property name="shotcut:skipConvert">1</property>
  </chain>
  <chain id="chain33" out="00:02:02.733">
    <property name="length">00:02:02.766</property>
    <property name="eof">pause</property>
    <property name="resource">D:/Dropbox2022/Dropbox/2023/Editar/30 Dias + Fitness/Semana4/VID_20230325_140057.mp4</property>
    <property name="mlt_service">avformat-novalidate</property>
    <property name="seekable">1</property>
    <property name="audio_index">1</property>
    <property name="video_index">0</property>
    <property name="mute_on_pause">0</property>
    <property name="xml">was here</property>
    <property name="shotcut:hash">187b885b118520b8cc470310114fd4c3</property>
    <property name="ignore_points">1</property>
    <property name="shotcut:caption">VID_20230325_140057.mp4</property>
  </chain>
  <chain id="chain34" out="00:01:07.399">
    <property name="length">00:01:07.432</property>
    <property name="eof">pause</property>
    <property name="resource">D:/Dropbox2022/Dropbox/2023/Editar/30 Dias + Fitness/Semana4/VID_20230325_140437 - Convertido.mp4</property>
    <property name="mlt_service">avformat-novalidate</property>
    <property name="seekable">1</property>
    <property name="audio_index">1</property>
    <property name="video_index">0</property>
    <property name="mute_on_pause">0</property>
    <property name="shotcut:hash">51341f71671c7261c3ccd03861a5255f</property>
    <property name="xml">was here</property>
    <property name="ignore_points">1</property>
    <property name="shotcut:caption">VID_20230325_140437 - Convertido.mp4</property>
  </chain>
  <chain id="chain35" out="00:01:28.229">
    <property name="length">00:01:28.263</property>
    <property name="eof">pause</property>
    <property name="resource">D:/Dropbox2022/Dropbox/2023/Editar/30 Dias + Fitness/Semana4/VID_20230325_141527 - Convertido.mp4</property>
    <property name="mlt_service">avformat-novalidate</property>
    <property name="seekable">1</property>
    <property name="audio_index">1</property>
    <property name="video_index">0</property>
    <property name="mute_on_pause">0</property>
    <property name="shotcut:hash">3264cd2b7bb3d613355e392afbdd06a0</property>
    <property name="xml">was here</property>
    <property name="ignore_points">1</property>
    <property name="shotcut:caption">VID_20230325_141527 - Convertido.mp4</property>
  </chain>
  <chain id="chain36" out="00:01:14.798">
    <property name="length">00:01:14.831</property>
    <property name="eof">pause</property>
    <property name="resource">D:/Dropbox2022/Dropbox/2023/Editar/30 Dias + Fitness/Semana4/VID_20230325_131528 - Convertido.mp4</property>
    <property name="mlt_service">avformat-novalidate</property>
    <property name="seekable">1</property>
    <property name="audio_index">1</property>
    <property name="video_index">0</property>
    <property name="mute_on_pause">0</property>
    <property name="shotcut:hash">b67ddf619f9159ce90fd1580f9788234</property>
    <property name="xml">was here</property>
    <property name="ignore_points">1</property>
    <property name="shotcut:caption">VID_20230325_131528 - Convertido.mp4</property>
  </chain>
  <chain id="chain37" out="00:01:55.359">
    <property name="length">00:01:55.392</property>
    <property name="eof">pause</property>
    <property name="resource">D:/Dropbox2022/Dropbox/2023/Editar/30 Dias + Fitness/Semana4/VID_20230325_132236 - Convertido.mp4</property>
    <property name="mlt_service">avformat-novalidate</property>
    <property name="seekable">1</property>
    <property name="audio_index">1</property>
    <property name="video_index">0</property>
    <property name="mute_on_pause">0</property>
    <property name="shotcut:hash">6f761dfa711c787139526f1ec2b8eb6a</property>
    <property name="xml">was here</property>
    <property name="ignore_points">1</property>
    <property name="shotcut:caption">VID_20230325_132236 - Convertido.mp4</property>
  </chain>
  <chain id="chain38" out="00:01:20.464">
    <property name="length">00:01:20.497</property>
    <property name="eof">pause</property>
    <property name="resource">D:/Dropbox2022/Dropbox/2023/Editar/30 Dias + Fitness/Semana4/VID_20230325_135106 - Convertido.mp4</property>
    <property name="mlt_service">avformat-novalidate</property>
    <property name="seekable">1</property>
    <property name="audio_index">1</property>
    <property name="video_index">0</property>
    <property name="mute_on_pause">0</property>
    <property name="shotcut:hash">000c927762715fae319469650d40d995</property>
    <property name="xml">was here</property>
    <property name="ignore_points">1</property>
    <property name="shotcut:caption">VID_20230325_135106 - Convertido.mp4</property>
  </chain>
  <chain id="chain39" out="00:02:12.665">
    <property name="length">00:02:12.698</property>
    <property name="eof">pause</property>
    <property name="resource">D:/Dropbox2022/Dropbox/2023/Editar/30 Dias + Fitness/Semana4/VID_20230325_135841 - Convertido.mp4</property>
    <property name="mlt_service">avformat-novalidate</property>
    <property name="seekable">1</property>
    <property name="audio_index">1</property>
    <property name="video_index">0</property>
    <property name="mute_on_pause">0</property>
    <property name="shotcut:hash">a18e0da727195c8a41947186042447d3</property>
    <property name="xml">was here</property>
    <property name="ignore_points">1</property>
    <property name="shotcut:caption">VID_20230325_135841 - Convertido.mp4</property>
  </chain>
  <playlist id="main_bin" title="Shotcut version 21.12.24">
    <property name="shotcut:projectAudioChannels">2</property>
    <property name="shotcut:projectFolder">1</property>
    <property name="xml_retain">1</property>
    <entry producer="chain0" in="00:00:00.000" out="00:00:10.732"/>
    <entry producer="chain1" in="00:00:00.000" out="00:00:25.463"/>
    <entry producer="chain2" in="00:00:00.000" out="00:00:31.529"/>
    <entry producer="chain3" in="00:00:00.000" out="00:32:50.393"/>
    <entry producer="chain4" in="00:00:00.000" out="01:07:45.660"/>
    <entry producer="chain5" in="00:00:00.000" out="00:00:05.633"/>
    <entry producer="chain6" in="00:00:00.000" out="00:00:31.129"/>
    <entry producer="chain7" in="00:00:00.000" out="00:00:31.129"/>
    <entry producer="chain8" in="00:00:00.000" out="00:00:31.062"/>
    <entry producer="chain9" in="00:00:00.000" out="00:00:31.062"/>
    <entry producer="chain10" in="00:00:00.000" out="00:00:28.763"/>
    <entry producer="chain11" in="00:00:00.000" out="00:00:54.825"/>
    <entry producer="chain12" in="00:00:00.000" out="00:00:15.831"/>
    <entry producer="chain13" in="00:00:00.000" out="00:00:08.032"/>
    <entry producer="chain14" in="00:00:00.000" out="00:00:22.430"/>
    <entry producer="chain15" in="00:00:00.000" out="00:00:40.128"/>
    <entry producer="chain16" in="00:00:00.000" out="00:00:27.429"/>
    <entry producer="chain17" in="00:00:00.000" out="00:00:11.465"/>
    <entry producer="chain18" in="00:00:00.000" out="00:01:46.693"/>
    <entry producer="chain19" in="00:00:00.000" out="00:01:14.798"/>
    <entry producer="chain20" in="00:00:00.000" out="00:01:16.631"/>
    <entry producer="chain21" in="00:00:00.000" out="00:01:55.359"/>
    <entry producer="chain22" in="00:00:00.000" out="00:02:21.964"/>
    <entry producer="chain23" in="00:00:00.000" out="00:01:59.458"/>
    <entry producer="chain24" in="00:00:00.000" out="00:02:00.100"/>
    <entry producer="chain25" in="00:00:00.000" out="00:01:49.926"/>
    <entry producer="chain26" in="00:00:00.000" out="00:01:14.165"/>
    <entry producer="chain27" in="00:00:00.000" out="00:01:01.966"/>
    <entry producer="chain28" in="00:00:00.000" out="00:01:20.430"/>
    <entry producer="chain29" in="00:00:00.000" out="00:00:21.630"/>
    <entry producer="chain30" in="00:00:00.000" out="00:00:42.361"/>
    <entry producer="chain31" in="00:00:00.000" out="00:00:58.958"/>
    <entry producer="chain32" in="00:00:00.000" out="00:02:12.632"/>
    <entry producer="chain33" in="00:00:00.000" out="00:02:02.733"/>
    <entry producer="chain34" in="00:00:00.000" out="00:01:07.399"/>
    <entry producer="chain35" in="00:00:00.000" out="00:01:28.229"/>
    <entry producer="chain36" in="00:00:00.000" out="00:01:14.798"/>
    <entry producer="chain37" in="00:00:00.000" out="00:01:55.359"/>
    <entry producer="chain38" in="00:00:00.000" out="00:01:20.464"/>
    <entry producer="chain39" in="00:00:00.000" out="00:02:12.665"/>
  </playlist>
  <producer id="black" in="00:00:00.000" out="00:35:50.626">
    <property name="length">00:35:50.659</property>
    <property name="eof">pause</property>
    <property name="resource">0</property>
    <property name="aspect_ratio">1</property>
    <property name="mlt_service">color</property>
    <property name="mlt_image_format">rgba</property>
    <property name="set.test_audio">0</property>
  </producer>
  <playlist id="background">
    <entry producer="black" in="00:00:00.000" out="00:35:50.626"/>
  </playlist>
  <chain id="chain40" out="00:00:31.529">
    <property name="length">00:00:31.562</property>
    <property name="eof">pause</property>
    <property name="resource">D:/Dropbox2022/Dropbox/2023/Editar/30 Dias + Fitness/Semana4/VID_20230325_142811.mp4</property>
    <property name="mlt_service">avformat-novalidate</property>
    <property name="seekable">1</property>
    <property name="audio_index">-1</property>
    <property name="video_index">0</property>
    <property name="mute_on_pause">0</property>
    <property name="xml">was here</property>
    <property name="shotcut:hash">e7eb05add0c757b735cae5d2b909feef</property>
    <property name="ignore_points">0</property>
    <property name="shotcut:caption">VID_20230325_142811.mp4</property>
    <property name="shotcut:defaultAudioIndex">1</property>
    <filter id="filter0" in="00:00:01.266" out="00:00:12.865">
      <property name="start">1</property>
      <property name="level">00:00:00.000=0;00:00:01.100=1</property>
      <property name="mlt_service">brightness</property>
      <property name="shotcut:filter">fadeInBrightness</property>
      <property name="alpha">1</property>
      <property name="shotcut:animIn">34</property>
    </filter>
  </chain>
  <chain id="chain41" out="00:00:11.465">
    <property name="length">00:00:11.498</property>
    <property name="eof">pause</property>
    <property name="resource">D:/Dropbox2022/Dropbox/2023/Editar/30 Dias + Fitness/Semana4/VID_20230325_130724.mp4</property>
    <property name="mlt_service">avformat-novalidate</property>
    <property name="seekable">1</property>
    <property name="audio_index">-1</property>
    <property name="video_index">0</property>
    <property name="mute_on_pause">0</property>
    <property name="xml">was here</property>
    <property name="shotcut:hash">f8f45441d9e6e67d4840616b3008f1f1</property>
    <property name="ignore_points">0</property>
    <property name="shotcut:caption">VID_20230325_130724.mp4</property>
    <property name="shotcut:defaultAudioIndex">1</property>
  </chain>
  <tractor id="tractor0" in="00:00:00.000" out="00:00:00.567">
    <property name="shotcut:transition">lumaMix</property>
    <track producer="chain40" in="00:00:12.298" out="00:00:12.865"/>
    <track producer="chain41" in="00:00:00.000" out="00:00:00.567"/>
    <transition id="transition0" out="00:00:00.567">
      <property name="a_track">0</property>
      <property name="b_track">1</property>
      <property name="factory">loader</property>
      <property name="mlt_service">luma</property>
      <property name="alpha_over">1</property>
    </transition>
    <transition id="transition1" out="00:00:00.567">
      <property name="a_track">0</property>
      <property name="b_track">1</property>
      <property name="mlt_service">mix</property>
      <property name="start">-1</property>
      <property name="accepts_blanks">1</property>
    </transition>
  </tractor>
  <chain id="chain42" out="00:00:27.429">
    <property name="length">00:00:27.463</property>
    <property name="eof">pause</property>
    <property name="resource">D:/Dropbox2022/Dropbox/2023/Editar/30 Dias + Fitness/Semana4/VID_20230325_130507.mp4</property>
    <property name="mlt_service">avformat-novalidate</property>
    <property name="seekable">1</property>
    <property name="audio_index">-1</property>
    <property name="video_index">0</property>
    <property name="mute_on_pause">0</property>
    <property name="xml">was here</property>
    <property name="shotcut:hash">0a961fbd164c83602932eb635f6dc8df</property>
    <property name="ignore_points">0</property>
    <property name="shotcut:caption">VID_20230325_130507.mp4</property>
    <property name="shotcut:defaultAudioIndex">1</property>
  </chain>
  <chain id="chain43" out="00:00:54.825">
    <property name="length">00:00:54.859</property>
    <property name="eof">pause</property>
    <property name="resource">D:/Dropbox2022/Dropbox/2023/Editar/30 Dias + Fitness/Semana4/VID_20230325_130025.mp4</property>
    <property name="mlt_service">avformat-novalidate</property>
    <property name="seekable">1</property>
    <property name="audio_index">-1</property>
    <property name="video_index">0</property>
    <property name="mute_on_pause">0</property>
    <property name="xml">was here</property>
    <property name="shotcut:hash">33e6d489e3c0f077c94464053ddfecc5</property>
    <property name="ignore_points">0</property>
    <property name="shotcut:caption">VID_20230325_130025.mp4</property>
    <property name="shotcut:defaultAudioIndex">1</property>
  </chain>
  <tractor id="tractor1" in="00:00:00.000" out="00:00:00.800">
    <property name="shotcut:transition">lumaMix</property>
    <track producer="chain42" in="00:00:23.097" out="00:00:23.897"/>
    <track producer="chain43" in="00:00:00.000" out="00:00:00.800"/>
    <transition id="transition2" out="00:00:00.800">
      <property name="a_track">0</property>
      <property name="b_track">1</property>
      <property name="factory">loader</property>
      <property name="mlt_service">luma</property>
      <property name="alpha_over">1</property>
    </transition>
    <transition id="transition3" out="00:00:00.800">
      <property name="a_track">0</property>
      <property name="b_track">1</property>
      <property name="mlt_service">mix</property>
      <property name="start">-1</property>
      <property name="accepts_blanks">1</property>
    </transition>
  </tractor>
  <chain id="chain44" out="00:00:54.825">
    <property name="length">00:00:54.859</property>
    <property name="eof">pause</property>
    <property name="resource">D:/Dropbox2022/Dropbox/2023/Editar/30 Dias + Fitness/Semana4/VID_20230325_130025.mp4</property>
    <property name="mlt_service">avformat-novalidate</property>
    <property name="seekable">1</property>
    <property name="audio_index">-1</property>
    <property name="video_index">0</property>
    <property name="mute_on_pause">0</property>
    <property name="xml">was here</property>
    <property name="shotcut:hash">33e6d489e3c0f077c94464053ddfecc5</property>
    <property name="ignore_points">0</property>
    <property name="shotcut:caption">VID_20230325_130025.mp4</property>
    <property name="shotcut:defaultAudioIndex">1</property>
  </chain>
  <tractor id="tractor2" in="00:00:00.000" out="00:00:01.266">
    <property name="shotcut:transition">lumaMix</property>
    <track producer="chain43" in="00:00:19.897" out="00:00:21.164"/>
    <track producer="chain44" in="00:00:24.896" out="00:00:26.163"/>
    <transition id="transition4" out="00:00:01.266">
      <property name="a_track">0</property>
      <property name="b_track">1</property>
      <property name="factory">loader</property>
      <property name="mlt_service">luma</property>
      <property name="alpha_over">1</property>
    </transition>
    <transition id="transition5" out="00:00:01.266">
      <property name="a_track">0</property>
      <property name="b_track">1</property>
      <property name="mlt_service">mix</property>
      <property name="start">-1</property>
      <property name="accepts_blanks">1</property>
    </transition>
  </tractor>
  <chain id="chain45" out="00:00:05.633">
    <property name="length">00:00:05.666</property>
    <property name="eof">pause</property>
    <property name="resource">D:/Dropbox2022/Dropbox/2023/Editar/30 Dias + Fitness/Contagem regressiva 5 segundos.mp4</property>
    <property name="mlt_service">avformat-novalidate</property>
    <property name="seekable">1</property>
    <property name="audio_index">1</property>
    <property name="video_index">0</property>
    <property name="mute_on_pause">0</property>
    <property name="xml">was here</property>
    <property name="shotcut:hash">8446032aed2761fcbb76f01fb088108e</property>
    <property name="ignore_points">0</property>
    <property name="shotcut:caption">Contagem regressiva 5 segundos.mp4</property>
  </chain>
  <chain id="chain46" out="00:01:46.693">
    <property name="length">00:01:46.727</property>
    <property name="eof">pause</property>
    <property name="resource">D:/Dropbox2022/Dropbox/2023/Editar/30 Dias + Fitness/Semana4/VID_20230325_131147.mp4</property>
    <property name="mlt_service">avformat-novalidate</property>
    <property name="seekable">1</property>
    <property name="audio_index">1</property>
    <property name="video_index">0</property>
    <property name="mute_on_pause">0</property>
    <property name="xml">was here</property>
    <property name="shotcut:hash">e3a45b35ddf8870bcc62eaef67866db4</property>
    <property name="ignore_points">0</property>
    <property name="shotcut:caption">VID_20230325_131147.mp4</property>
  </chain>
  <chain id="chain47" out="00:01:46.693">
    <property name="length">00:01:46.727</property>
    <property name="eof">pause</property>
    <property name="resource">D:/Dropbox2022/Dropbox/2023/Editar/30 Dias + Fitness/Semana4/VID_20230325_131147.mp4</property>
    <property name="mlt_service">avformat-novalidate</property>
    <property name="seekable">1</property>
    <property name="audio_index">-1</property>
    <property name="video_index">0</property>
    <property name="mute_on_pause">0</property>
    <property name="xml">was here</property>
    <property name="shotcut:hash">e3a45b35ddf8870bcc62eaef67866db4</property>
    <property name="ignore_points">0</property>
    <property name="shotcut:caption">VID_20230325_131147.mp4</property>
    <property name="shotcut:defaultAudioIndex">1</property>
  </chain>
  <tractor id="tractor3" in="00:00:00.000" out="00:00:00.333">
    <property name="shotcut:transition">lumaMix</property>
    <track producer="chain46" in="00:00:18.831" out="00:00:19.164"/>
    <track producer="chain47" in="00:00:25.330" out="00:00:25.663"/>
    <transition id="transition6" out="00:00:00.333">
      <property name="a_track">0</property>
      <property name="b_track">1</property>
      <property name="factory">loader</property>
      <property name="mlt_service">luma</property>
      <property name="alpha_over">1</property>
    </transition>
    <transition id="transition7" out="00:00:00.333">
      <property name="a_track">0</property>
      <property name="b_track">1</property>
      <property name="mlt_service">mix</property>
      <property name="start">-1</property>
      <property name="accepts_blanks">1</property>
    </transition>
  </tractor>
  <chain id="chain48" out="00:00:31.129">
    <property name="length">00:00:31.162</property>
    <property name="eof">pause</property>
    <property name="resource">D:/Dropbox2022/Dropbox/2023/Editar/30 Dias + Fitness/Semana4/Cronometro 30 segundos.mp4</property>
    <property name="mlt_service">avformat-novalidate</property>
    <property name="seekable">1</property>
    <property name="audio_index">1</property>
    <property name="video_index">0</property>
    <property name="mute_on_pause">0</property>
    <property name="xml">was here</property>
    <property name="shotcut:hash">f4e1a6ff5963b2f62ac13e078d810f09</property>
    <property name="shotcut:caption">Cronometro 30 segundos.mp4</property>
  </chain>
  <chain id="chain49" out="00:01:14.798">
    <property name="length">00:01:14.831</property>
    <property name="eof">pause</property>
    <property name="resource">D:/Dropbox2022/Dropbox/2023/Editar/30 Dias + Fitness/Semana4/VID_20230325_131528.mp4</property>
    <property name="mlt_service">avformat-novalidate</property>
    <property name="seekable">1</property>
    <property name="audio_index">-1</property>
    <property name="video_index">0</property>
    <property name="mute_on_pause">0</property>
    <property name="xml">was here</property>
    <property name="shotcut:hash">7f50e139f5085ca2556849dd2def491f</property>
    <property name="ignore_points">0</property>
    <property name="shotcut:caption">VID_20230325_131528.mp4</property>
    <property name="shotcut:skipConvert">1</property>
    <property name="shotcut:defaultAudioIndex">1</property>
  </chain>
  <chain id="chain50" out="00:00:31.129">
    <property name="length">00:00:31.162</property>
    <property name="eof">pause</property>
    <property name="resource">D:/Dropbox2022/Dropbox/2023/Editar/30 Dias + Fitness/Semana4/Preguiça é pecado.mp4</property>
    <property name="mlt_service">avformat-novalidate</property>
    <property name="seekable">1</property>
    <property name="audio_index">1</property>
    <property name="video_index">0</property>
    <property name="mute_on_pause">0</property>
    <property name="xml">was here</property>
    <property name="shotcut:hash">afa63acb62a0ad6260022aae81636f9e</property>
    <property name="shotcut:caption">Preguiça é pecado.mp4</property>
  </chain>
  <chain id="chain51" out="00:01:16.631">
    <property name="length">00:01:16.664</property>
    <property name="eof">pause</property>
    <property name="resource">D:/Dropbox2022/Dropbox/2023/Editar/30 Dias + Fitness/Semana4/VID_20230325_131912.mp4</property>
    <property name="mlt_service">avformat-novalidate</property>
    <property name="seekable">1</property>
    <property name="audio_index">-1</property>
    <property name="video_index">0</property>
    <property name="mute_on_pause">0</property>
    <property name="xml">was here</property>
    <property name="shotcut:hash">547021bf3a317d5ca3f1758d93c365d2</property>
    <property name="ignore_points">0</property>
    <property name="shotcut:caption">VID_20230325_131912.mp4</property>
    <property name="shotcut:defaultAudioIndex">1</property>
  </chain>
  <chain id="chain52" out="00:01:16.631">
    <property name="length">00:01:16.664</property>
    <property name="eof">pause</property>
    <property name="resource">D:/Dropbox2022/Dropbox/2023/Editar/30 Dias + Fitness/Semana4/VID_20230325_131912.mp4</property>
    <property name="mlt_service">avformat-novalidate</property>
    <property name="seekable">1</property>
    <property name="audio_index">-1</property>
    <property name="video_index">0</property>
    <property name="mute_on_pause">0</property>
    <property name="xml">was here</property>
    <property name="shotcut:hash">547021bf3a317d5ca3f1758d93c365d2</property>
    <property name="ignore_points">0</property>
    <property name="shotcut:caption">VID_20230325_131912.mp4</property>
    <property name="shotcut:defaultAudioIndex">1</property>
  </chain>
  <chain id="chain53" out="00:00:38.328">
    <property name="length">00:00:38.361</property>
    <property name="eof">pause</property>
    <property name="resource">VID_20230325_131912 - Revertido1.mp4</property>
    <property name="mlt_service">avformat-novalidate</property>
    <property name="seekable">1</property>
    <property name="audio_index">-1</property>
    <property name="video_index">0</property>
    <property name="mute_on_pause">0</property>
    <property name="shotcut:hash">d403716a29948a3e83fcbf74cb164fcc</property>
    <property name="shotcut:defaultAudioIndex">1</property>
    <property name="shotcut:originalIn">00:00:37.928</property>
    <property name="shotcut:originalOut">00:00:46.260</property>
    <property name="shotcut:resource">D:/Dropbox2022/Dropbox/2023/Editar/30 Dias + Fitness/Semana4/VID_20230325_131912.mp4</property>
    <property name="shotcut:caption">VID_20230325_131912 - Revertido1.mp4</property>
    <property name="xml">was here</property>
  </chain>
  <chain id="chain54" out="00:01:16.631">
    <property name="length">00:01:16.664</property>
    <property name="eof">pause</property>
    <property name="resource">D:/Dropbox2022/Dropbox/2023/Editar/30 Dias + Fitness/Semana4/VID_20230325_131912.mp4</property>
    <property name="mlt_service">avformat-novalidate</property>
    <property name="seekable">1</property>
    <property name="audio_index">-1</property>
    <property name="video_index">0</property>
    <property name="mute_on_pause">0</property>
    <property name="xml">was here</property>
    <property name="shotcut:hash">547021bf3a317d5ca3f1758d93c365d2</property>
    <property name="ignore_points">0</property>
    <property name="shotcut:caption">VID_20230325_131912.mp4</property>
    <property name="shotcut:defaultAudioIndex">1</property>
  </chain>
  <chain id="chain55" out="00:01:16.631">
    <property name="length">00:01:16.664</property>
    <property name="eof">pause</property>
    <property name="resource">D:/Dropbox2022/Dropbox/2023/Editar/30 Dias + Fitness/Semana4/VID_20230325_131912.mp4</property>
    <property name="mlt_service">avformat-novalidate</property>
    <property name="seekable">1</property>
    <property name="audio_index">-1</property>
    <property name="video_index">0</property>
    <property name="mute_on_pause">0</property>
    <property name="xml">was here</property>
    <property name="shotcut:hash">547021bf3a317d5ca3f1758d93c365d2</property>
    <property name="ignore_points">0</property>
    <property name="shotcut:caption">VID_20230325_131912.mp4</property>
    <property name="shotcut:defaultAudioIndex">1</property>
  </chain>
  <chain id="chain56" out="00:00:31.062">
    <property name="length">00:00:31.096</property>
    <property name="eof">pause</property>
    <property name="resource">D:/Dropbox2022/Dropbox/2023/Editar/30 Dias + Fitness/Semana3/Cronometro descança 30 segundos.mp4</property>
    <property name="mlt_service">avformat-novalidate</property>
    <property name="seekable">1</property>
    <property name="audio_index">1</property>
    <property name="video_index">0</property>
    <property name="mute_on_pause">0</property>
    <property name="xml">was here</property>
    <property name="shotcut:hash">75291a6e2b91d3f7a707b80f6cc4081a</property>
    <property name="shotcut:caption">Cronometro descança 30 segundos.mp4</property>
  </chain>
  <chain id="chain57" out="00:01:55.359">
    <property name="length">00:01:55.392</property>
    <property name="eof">pause</property>
    <property name="resource">D:/Dropbox2022/Dropbox/2023/Editar/30 Dias + Fitness/Semana4/VID_20230325_132236.mp4</property>
    <property name="mlt_service">avformat-novalidate</property>
    <property name="seekable">1</property>
    <property name="audio_index">-1</property>
    <property name="video_index">0</property>
    <property name="mute_on_pause">0</property>
    <property name="xml">was here</property>
    <property name="shotcut:hash">50e807b8938ccc89de3033ec78512b2d</property>
    <property name="ignore_points">0</property>
    <property name="shotcut:caption">VID_20230325_132236.mp4</property>
    <property name="shotcut:skipConvert">1</property>
    <property name="shotcut:defaultAudioIndex">1</property>
  </chain>
  <chain id="chain58" out="00:00:31.129">
    <property name="length">00:00:31.162</property>
    <property name="eof">pause</property>
    <property name="resource">D:/Dropbox2022/Dropbox/2023/Editar/30 Dias + Fitness/Semana4/Cronometro 30 segundos.mp4</property>
    <property name="mlt_service">avformat-novalidate</property>
    <property name="seekable">1</property>
    <property name="audio_index">1</property>
    <property name="video_index">0</property>
    <property name="mute_on_pause">0</property>
    <property name="xml">was here</property>
    <property name="shotcut:hash">f4e1a6ff5963b2f62ac13e078d810f09</property>
    <property name="shotcut:caption">Cronometro 30 segundos.mp4</property>
  </chain>
  <chain id="chain59" out="00:01:55.359">
    <property name="length">00:01:55.392</property>
    <property name="eof">pause</property>
    <property name="resource">D:/Dropbox2022/Dropbox/2023/Editar/30 Dias + Fitness/Semana4/VID_20230325_132236.mp4</property>
    <property name="mlt_service">avformat-novalidate</property>
    <property name="seekable">1</property>
    <property name="audio_index">-1</property>
    <property name="video_index">0</property>
    <property name="mute_on_pause">0</property>
    <property name="xml">was here</property>
    <property name="shotcut:hash">50e807b8938ccc89de3033ec78512b2d</property>
    <property name="ignore_points">0</property>
    <property name="shotcut:caption">VID_20230325_132236.mp4</property>
    <property name="shotcut:skipConvert">1</property>
    <property name="shotcut:defaultAudioIndex">1</property>
  </chain>
  <chain id="chain60" out="00:00:31.062">
    <property name="length">00:00:31.096</property>
    <property name="eof">pause</property>
    <property name="resource">D:/Dropbox2022/Dropbox/2023/Editar/30 Dias + Fitness/Semana3/Cronometro chamda última sequencia.mp4</property>
    <property name="mlt_service">avformat-novalidate</property>
    <property name="seekable">1</property>
    <property name="audio_index">1</property>
    <property name="video_index">0</property>
    <property name="mute_on_pause">0</property>
    <property name="xml">was here</property>
    <property name="shotcut:hash">d4447d424930359bc8d77f348596ea23</property>
    <property name="shotcut:caption">Cronometro chamda última sequencia.mp4</property>
  </chain>
  <chain id="chain61" out="00:01:55.359">
    <property name="length">00:01:55.392</property>
    <property name="eof">pause</property>
    <property name="resource">D:/Dropbox2022/Dropbox/2023/Editar/30 Dias + Fitness/Semana4/VID_20230325_132236.mp4</property>
    <property name="mlt_service">avformat-novalidate</property>
    <property name="seekable">1</property>
    <property name="audio_index">-1</property>
    <property name="video_index">0</property>
    <property name="mute_on_pause">0</property>
    <property name="xml">was here</property>
    <property name="shotcut:hash">50e807b8938ccc89de3033ec78512b2d</property>
    <property name="ignore_points">0</property>
    <property name="shotcut:caption">VID_20230325_132236.mp4</property>
    <property name="shotcut:skipConvert">1</property>
    <property name="shotcut:defaultAudioIndex">1</property>
  </chain>
  <chain id="chain62" out="00:00:31.129">
    <property name="length">00:00:31.162</property>
    <property name="eof">pause</property>
    <property name="resource">D:/Dropbox2022/Dropbox/2023/Editar/30 Dias + Fitness/Semana4/Cronometro 30 segundos.mp4</property>
    <property name="mlt_service">avformat-novalidate</property>
    <property name="seekable">1</property>
    <property name="audio_index">1</property>
    <property name="video_index">0</property>
    <property name="mute_on_pause">0</property>
    <property name="xml">was here</property>
    <property name="shotcut:hash">f4e1a6ff5963b2f62ac13e078d810f09</property>
    <property name="shotcut:caption">Cronometro 30 segundos.mp4</property>
  </chain>
  <chain id="chain63" out="00:02:21.964">
    <property name="length">00:02:21.997</property>
    <property name="eof">pause</property>
    <property name="resource">D:/Dropbox2022/Dropbox/2023/Editar/30 Dias + Fitness/Semana4/VID_20230325_132538.mp4</property>
    <property name="mlt_service">avformat-novalidate</property>
    <property name="seekable">1</property>
    <property name="audio_index">-1</property>
    <property name="video_index">0</property>
    <property name="mute_on_pause">0</property>
    <property name="xml">was here</property>
    <property name="shotcut:hash">2a5aea7188dc9ddeae4b35ebcbc42cba</property>
    <property name="ignore_points">0</property>
    <property name="shotcut:caption">VID_20230325_132538.mp4</property>
    <property name="shotcut:defaultAudioIndex">1</property>
  </chain>
  <chain id="chain64" out="00:02:21.964">
    <property name="length">00:02:21.997</property>
    <property name="eof">pause</property>
    <property name="resource">D:/Dropbox2022/Dropbox/2023/Editar/30 Dias + Fitness/Semana4/VID_20230325_132538.mp4</property>
    <property name="mlt_service">avformat-novalidate</property>
    <property name="seekable">1</property>
    <property name="audio_index">-1</property>
    <property name="video_index">0</property>
    <property name="mute_on_pause">0</property>
    <property name="xml">was here</property>
    <property name="shotcut:hash">2a5aea7188dc9ddeae4b35ebcbc42cba</property>
    <property name="ignore_points">0</property>
    <property name="shotcut:caption">VID_20230325_132538.mp4</property>
    <property name="shotcut:defaultAudioIndex">1</property>
  </chain>
  <producer id="producer0" in="00:00:00.000" out="00:00:15.798">
    <property name="length">00:00:15.831</property>
    <property name="eof">pause</property>
    <property name="resource">2.4:VID_20230325_132538 - Revertido1.mp4</property>
    <property name="aspect_ratio">1</property>
    <property name="seekable">1</property>
    <property name="audio_index">-1</property>
    <property name="video_index">0</property>
    <property name="mute_on_pause">1</property>
    <property name="warp_speed">2.4</property>
    <property name="warp_resource">VID_20230325_132538 - Revertido1.mp4</property>
    <property name="mlt_service">timewarp</property>
    <property name="shotcut:producer">avformat</property>
    <property name="video_delay">0</property>
    <property name="shotcut:hash">a7ec45eff0101c761dd80bb00b35fd6f</property>
    <property name="shotcut:defaultAudioIndex">1</property>
    <property name="shotcut:caption">VID_20230325_132538 - Revertido1.mp4</property>
    <property name="shotcut:resource">D:/Dropbox2022/Dropbox/2023/Editar/30 Dias + Fitness/Semana4/VID_20230325_132538.mp4</property>
    <property name="xml">was here</property>
  </producer>
  <chain id="chain65" out="00:02:21.964">
    <property name="length">00:02:21.997</property>
    <property name="eof">pause</property>
    <property name="resource">D:/Dropbox2022/Dropbox/2023/Editar/30 Dias + Fitness/Semana4/VID_20230325_132538.mp4</property>
    <property name="mlt_service">avformat-novalidate</property>
    <property name="seekable">1</property>
    <property name="audio_index">-1</property>
    <property name="video_index">0</property>
    <property name="mute_on_pause">0</property>
    <property name="xml">was here</property>
    <property name="shotcut:hash">2a5aea7188dc9ddeae4b35ebcbc42cba</property>
    <property name="ignore_points">0</property>
    <property name="shotcut:caption">VID_20230325_132538.mp4</property>
    <property name="shotcut:defaultAudioIndex">1</property>
  </chain>
  <chain id="chain66" out="00:02:21.964">
    <property name="length">00:02:21.997</property>
    <property name="eof">pause</property>
    <property name="resource">D:/Dropbox2022/Dropbox/2023/Editar/30 Dias + Fitness/Semana4/VID_20230325_132538.mp4</property>
    <property name="mlt_service">avformat-novalidate</property>
    <property name="seekable">1</property>
    <property name="audio_index">-1</property>
    <property name="video_index">0</property>
    <property name="mute_on_pause">0</property>
    <property name="xml">was here</property>
    <property name="shotcut:hash">2a5aea7188dc9ddeae4b35ebcbc42cba</property>
    <property name="ignore_points">0</property>
    <property name="shotcut:caption">VID_20230325_132538.mp4</property>
    <property name="shotcut:defaultAudioIndex">1</property>
  </chain>
  <chain id="chain67" out="00:00:31.062">
    <property name="length">00:00:31.096</property>
    <property name="eof">pause</property>
    <property name="resource">D:/Dropbox2022/Dropbox/2023/Editar/30 Dias + Fitness/Semana3/Cronometro descança 30 segundos.mp4</property>
    <property name="mlt_service">avformat-novalidate</property>
    <property name="seekable">1</property>
    <property name="audio_index">1</property>
    <property name="video_index">0</property>
    <property name="mute_on_pause">0</property>
    <property name="xml">was here</property>
    <property name="shotcut:hash">75291a6e2b91d3f7a707b80f6cc4081a</property>
    <property name="shotcut:caption">Cronometro descança 30 segundos.mp4</property>
  </chain>
  <chain id="chain68" out="00:02:21.964">
    <property name="length">00:02:21.997</property>
    <property name="eof">pause</property>
    <property name="resource">D:/Dropbox2022/Dropbox/2023/Editar/30 Dias + Fitness/Semana4/VID_20230325_132538.mp4</property>
    <property name="mlt_service">avformat-novalidate</property>
    <property name="seekable">1</property>
    <property name="audio_index">-1</property>
    <property name="video_index">0</property>
    <property name="mute_on_pause">0</property>
    <property name="xml">was here</property>
    <property name="shotcut:hash">2a5aea7188dc9ddeae4b35ebcbc42cba</property>
    <property name="ignore_points">0</property>
    <property name="shotcut:caption">VID_20230325_132538.mp4</property>
    <property name="shotcut:defaultAudioIndex">1</property>
  </chain>
  <chain id="chain69" out="00:02:21.964">
    <property name="length">00:02:21.997</property>
    <property name="eof">pause</property>
    <property name="resource">D:/Dropbox2022/Dropbox/2023/Editar/30 Dias + Fitness/Semana4/VID_20230325_132538.mp4</property>
    <property name="mlt_service">avformat-novalidate</property>
    <property name="seekable">1</property>
    <property name="audio_index">-1</property>
    <property name="video_index">0</property>
    <property name="mute_on_pause">0</property>
    <property name="xml">was here</property>
    <property name="shotcut:hash">2a5aea7188dc9ddeae4b35ebcbc42cba</property>
    <property name="ignore_points">0</property>
    <property name="shotcut:caption">VID_20230325_132538.mp4</property>
    <property name="shotcut:defaultAudioIndex">1</property>
  </chain>
  <producer id="producer1" in="00:00:00.000" out="00:00:15.798">
    <property name="length">00:00:15.831</property>
    <property name="eof">pause</property>
    <property name="resource">2.4:VID_20230325_132538 - Revertido1.mp4</property>
    <property name="aspect_ratio">1</property>
    <property name="seekable">1</property>
    <property name="audio_index">-1</property>
    <property name="video_index">0</property>
    <property name="mute_on_pause">1</property>
    <property name="warp_speed">2.4</property>
    <property name="warp_resource">VID_20230325_132538 - Revertido1.mp4</property>
    <property name="mlt_service">timewarp</property>
    <property name="shotcut:producer">avformat</property>
    <property name="video_delay">0</property>
    <property name="shotcut:hash">a7ec45eff0101c761dd80bb00b35fd6f</property>
    <property name="shotcut:defaultAudioIndex">1</property>
    <property name="shotcut:caption">VID_20230325_132538 - Revertido1.mp4</property>
    <property name="shotcut:resource">D:/Dropbox2022/Dropbox/2023/Editar/30 Dias + Fitness/Semana4/VID_20230325_132538.mp4</property>
    <property name="xml">was here</property>
  </producer>
  <chain id="chain70" out="00:02:21.964">
    <property name="length">00:02:21.997</property>
    <property name="eof">pause</property>
    <property name="resource">D:/Dropbox2022/Dropbox/2023/Editar/30 Dias + Fitness/Semana4/VID_20230325_132538.mp4</property>
    <property name="mlt_service">avformat-novalidate</property>
    <property name="seekable">1</property>
    <property name="audio_index">-1</property>
    <property name="video_index">0</property>
    <property name="mute_on_pause">0</property>
    <property name="xml">was here</property>
    <property name="shotcut:hash">2a5aea7188dc9ddeae4b35ebcbc42cba</property>
    <property name="ignore_points">0</property>
    <property name="shotcut:caption">VID_20230325_132538.mp4</property>
    <property name="shotcut:defaultAudioIndex">1</property>
  </chain>
  <chain id="chain71" out="00:02:21.964">
    <property name="length">00:02:21.997</property>
    <property name="eof">pause</property>
    <property name="resource">D:/Dropbox2022/Dropbox/2023/Editar/30 Dias + Fitness/Semana4/VID_20230325_132538.mp4</property>
    <property name="mlt_service">avformat-novalidate</property>
    <property name="seekable">1</property>
    <property name="audio_index">-1</property>
    <property name="video_index">0</property>
    <property name="mute_on_pause">0</property>
    <property name="xml">was here</property>
    <property name="shotcut:hash">2a5aea7188dc9ddeae4b35ebcbc42cba</property>
    <property name="ignore_points">0</property>
    <property name="shotcut:caption">VID_20230325_132538.mp4</property>
    <property name="shotcut:defaultAudioIndex">1</property>
  </chain>
  <chain id="chain72" out="00:00:31.062">
    <property name="length">00:00:31.096</property>
    <property name="eof">pause</property>
    <property name="resource">D:/Dropbox2022/Dropbox/2023/Editar/30 Dias + Fitness/Semana3/Cronometro chamda última sequencia.mp4</property>
    <property name="mlt_service">avformat-novalidate</property>
    <property name="seekable">1</property>
    <property name="audio_index">1</property>
    <property name="video_index">0</property>
    <property name="mute_on_pause">0</property>
    <property name="xml">was here</property>
    <property name="shotcut:hash">d4447d424930359bc8d77f348596ea23</property>
    <property name="shotcut:caption">Cronometro chamda última sequencia.mp4</property>
  </chain>
  <chain id="chain73" out="00:02:21.964">
    <property name="length">00:02:21.997</property>
    <property name="eof">pause</property>
    <property name="resource">D:/Dropbox2022/Dropbox/2023/Editar/30 Dias + Fitness/Semana4/VID_20230325_132538.mp4</property>
    <property name="mlt_service">avformat-novalidate</property>
    <property name="seekable">1</property>
    <property name="audio_index">-1</property>
    <property name="video_index">0</property>
    <property name="mute_on_pause">0</property>
    <property name="xml">was here</property>
    <property name="shotcut:hash">2a5aea7188dc9ddeae4b35ebcbc42cba</property>
    <property name="ignore_points">0</property>
    <property name="shotcut:caption">VID_20230325_132538.mp4</property>
    <property name="shotcut:defaultAudioIndex">1</property>
  </chain>
  <chain id="chain74" out="00:02:21.964">
    <property name="length">00:02:21.997</property>
    <property name="eof">pause</property>
    <property name="resource">D:/Dropbox2022/Dropbox/2023/Editar/30 Dias + Fitness/Semana4/VID_20230325_132538.mp4</property>
    <property name="mlt_service">avformat-novalidate</property>
    <property name="seekable">1</property>
    <property name="audio_index">-1</property>
    <property name="video_index">0</property>
    <property name="mute_on_pause">0</property>
    <property name="xml">was here</property>
    <property name="shotcut:hash">2a5aea7188dc9ddeae4b35ebcbc42cba</property>
    <property name="ignore_points">0</property>
    <property name="shotcut:caption">VID_20230325_132538.mp4</property>
    <property name="shotcut:defaultAudioIndex">1</property>
  </chain>
  <producer id="producer2" in="00:00:00.000" out="00:00:15.798">
    <property name="length">00:00:15.831</property>
    <property name="eof">pause</property>
    <property name="resource">2.4:VID_20230325_132538 - Revertido1.mp4</property>
    <property name="aspect_ratio">1</property>
    <property name="seekable">1</property>
    <property name="audio_index">-1</property>
    <property name="video_index">0</property>
    <property name="mute_on_pause">1</property>
    <property name="warp_speed">2.4</property>
    <property name="warp_resource">VID_20230325_132538 - Revertido1.mp4</property>
    <property name="mlt_service">timewarp</property>
    <property name="shotcut:producer">avformat</property>
    <property name="video_delay">0</property>
    <property name="shotcut:hash">a7ec45eff0101c761dd80bb00b35fd6f</property>
    <property name="shotcut:defaultAudioIndex">1</property>
    <property name="shotcut:caption">VID_20230325_132538 - Revertido1.mp4</property>
    <property name="shotcut:resource">D:/Dropbox2022/Dropbox/2023/Editar/30 Dias + Fitness/Semana4/VID_20230325_132538.mp4</property>
    <property name="xml">was here</property>
  </producer>
  <chain id="chain75" out="00:02:21.964">
    <property name="length">00:02:21.997</property>
    <property name="eof">pause</property>
    <property name="resource">D:/Dropbox2022/Dropbox/2023/Editar/30 Dias + Fitness/Semana4/VID_20230325_132538.mp4</property>
    <property name="mlt_service">avformat-novalidate</property>
    <property name="seekable">1</property>
    <property name="audio_index">-1</property>
    <property name="video_index">0</property>
    <property name="mute_on_pause">0</property>
    <property name="xml">was here</property>
    <property name="shotcut:hash">2a5aea7188dc9ddeae4b35ebcbc42cba</property>
    <property name="ignore_points">0</property>
    <property name="shotcut:caption">VID_20230325_132538.mp4</property>
    <property name="shotcut:defaultAudioIndex">1</property>
  </chain>
  <chain id="chain76" out="00:02:21.964">
    <property name="length">00:02:21.997</property>
    <property name="eof">pause</property>
    <property name="resource">D:/Dropbox2022/Dropbox/2023/Editar/30 Dias + Fitness/Semana4/VID_20230325_132538.mp4</property>
    <property name="mlt_service">avformat-novalidate</property>
    <property name="seekable">1</property>
    <property name="audio_index">-1</property>
    <property name="video_index">0</property>
    <property name="mute_on_pause">0</property>
    <property name="xml">was here</property>
    <property name="shotcut:hash">2a5aea7188dc9ddeae4b35ebcbc42cba</property>
    <property name="ignore_points">0</property>
    <property name="shotcut:caption">VID_20230325_132538.mp4</property>
    <property name="shotcut:defaultAudioIndex">1</property>
  </chain>
  <chain id="chain77" out="00:00:31.062">
    <property name="length">00:00:31.096</property>
    <property name="eof">pause</property>
    <property name="resource">D:/Dropbox2022/Dropbox/2023/Editar/30 Dias + Fitness/Semana3/Cronometro descança 30 segundos.mp4</property>
    <property name="mlt_service">avformat-novalidate</property>
    <property name="seekable">1</property>
    <property name="audio_index">1</property>
    <property name="video_index">0</property>
    <property name="mute_on_pause">0</property>
    <property name="xml">was here</property>
    <property name="shotcut:hash">75291a6e2b91d3f7a707b80f6cc4081a</property>
    <property name="shotcut:caption">Cronometro descança 30 segundos.mp4</property>
  </chain>
  <chain id="chain78" out="00:01:59.458">
    <property name="length">00:01:59.491</property>
    <property name="eof">pause</property>
    <property name="resource">D:/Dropbox2022/Dropbox/2023/Editar/30 Dias + Fitness/Semana4/VID_20230325_133146.mp4</property>
    <property name="mlt_service">avformat-novalidate</property>
    <property name="seekable">1</property>
    <property name="audio_index">-1</property>
    <property name="video_index">0</property>
    <property name="mute_on_pause">0</property>
    <property name="xml">was here</property>
    <property name="shotcut:hash">1951673e6fa858b77b44f0140c371ff0</property>
    <property name="ignore_points">0</property>
    <property name="shotcut:caption">VID_20230325_133146.mp4</property>
    <property name="shotcut:defaultAudioIndex">1</property>
  </chain>
  <chain id="chain79" out="00:00:31.062">
    <property name="length">00:00:31.096</property>
    <property name="eof">pause</property>
    <property name="resource">D:/Dropbox2022/Dropbox/2023/Editar/30 Dias + Fitness/Semana3/Cronometro descança 30 segundos.mp4</property>
    <property name="mlt_service">avformat-novalidate</property>
    <property name="seekable">1</property>
    <property name="audio_index">1</property>
    <property name="video_index">0</property>
    <property name="mute_on_pause">0</property>
    <property name="xml">was here</property>
    <property name="shotcut:hash">75291a6e2b91d3f7a707b80f6cc4081a</property>
    <property name="shotcut:caption">Cronometro descança 30 segundos.mp4</property>
  </chain>
  <chain id="chain80" out="00:01:59.458">
    <property name="length">00:01:59.491</property>
    <property name="eof">pause</property>
    <property name="resource">D:/Dropbox2022/Dropbox/2023/Editar/30 Dias + Fitness/Semana4/VID_20230325_133146.mp4</property>
    <property name="mlt_service">avformat-novalidate</property>
    <property name="seekable">1</property>
    <property name="audio_index">-1</property>
    <property name="video_index">0</property>
    <property name="mute_on_pause">0</property>
    <property name="xml">was here</property>
    <property name="shotcut:hash">1951673e6fa858b77b44f0140c371ff0</property>
    <property name="ignore_points">0</property>
    <property name="shotcut:caption">VID_20230325_133146.mp4</property>
    <property name="shotcut:defaultAudioIndex">1</property>
  </chain>
  <chain id="chain81" out="00:00:31.062">
    <property name="length">00:00:31.096</property>
    <property name="eof">pause</property>
    <property name="resource">D:/Dropbox2022/Dropbox/2023/Editar/30 Dias + Fitness/Semana3/Cronometro chamda última sequencia.mp4</property>
    <property name="mlt_service">avformat-novalidate</property>
    <property name="seekable">1</property>
    <property name="audio_index">1</property>
    <property name="video_index">0</property>
    <property name="mute_on_pause">0</property>
    <property name="xml">was here</property>
    <property name="shotcut:hash">d4447d424930359bc8d77f348596ea23</property>
    <property name="shotcut:caption">Cronometro chamda última sequencia.mp4</property>
  </chain>
  <chain id="chain82" out="00:01:59.458">
    <property name="length">00:01:59.491</property>
    <property name="eof">pause</property>
    <property name="resource">D:/Dropbox2022/Dropbox/2023/Editar/30 Dias + Fitness/Semana4/VID_20230325_133146.mp4</property>
    <property name="mlt_service">avformat-novalidate</property>
    <property name="seekable">1</property>
    <property name="audio_index">-1</property>
    <property name="video_index">0</property>
    <property name="mute_on_pause">0</property>
    <property name="xml">was here</property>
    <property name="shotcut:hash">1951673e6fa858b77b44f0140c371ff0</property>
    <property name="ignore_points">0</property>
    <property name="shotcut:caption">VID_20230325_133146.mp4</property>
    <property name="shotcut:defaultAudioIndex">1</property>
  </chain>
  <chain id="chain83" out="00:00:31.062">
    <property name="length">00:00:31.096</property>
    <property name="eof">pause</property>
    <property name="resource">D:/Dropbox2022/Dropbox/2023/Editar/30 Dias + Fitness/Semana3/Cronometro descança 30 segundos.mp4</property>
    <property name="mlt_service">avformat-novalidate</property>
    <property name="seekable">1</property>
    <property name="audio_index">1</property>
    <property name="video_index">0</property>
    <property name="mute_on_pause">0</property>
    <property name="xml">was here</property>
    <property name="shotcut:hash">75291a6e2b91d3f7a707b80f6cc4081a</property>
    <property name="shotcut:caption">Cronometro descança 30 segundos.mp4</property>
  </chain>
  <chain id="chain84" out="00:02:00.100">
    <property name="length">00:02:00.133</property>
    <property name="eof">pause</property>
    <property name="resource">D:/Dropbox2022/Dropbox/2023/Editar/30 Dias + Fitness/Semana4/VID_20230325_133436.mp4</property>
    <property name="mlt_service">avformat-novalidate</property>
    <property name="seekable">1</property>
    <property name="audio_index">-1</property>
    <property name="video_index">0</property>
    <property name="mute_on_pause">0</property>
    <property name="xml">was here</property>
    <property name="shotcut:hash">ac5147026020bafaf3b56e38cec416ca</property>
    <property name="ignore_points">0</property>
    <property name="shotcut:caption">VID_20230325_133436.mp4</property>
    <property name="shotcut:defaultAudioIndex">1</property>
  </chain>
  <chain id="chain85" out="00:00:31.062">
    <property name="length">00:00:31.096</property>
    <property name="eof">pause</property>
    <property name="resource">D:/Dropbox2022/Dropbox/2023/Editar/30 Dias + Fitness/Semana3/Cronometro descança 30 segundos.mp4</property>
    <property name="mlt_service">avformat-novalidate</property>
    <property name="seekable">1</property>
    <property name="audio_index">1</property>
    <property name="video_index">0</property>
    <property name="mute_on_pause">0</property>
    <property name="xml">was here</property>
    <property name="shotcut:hash">75291a6e2b91d3f7a707b80f6cc4081a</property>
    <property name="shotcut:caption">Cronometro descança 30 segundos.mp4</property>
  </chain>
  <chain id="chain86" out="00:02:00.100">
    <property name="length">00:02:00.133</property>
    <property name="eof">pause</property>
    <property name="resource">D:/Dropbox2022/Dropbox/2023/Editar/30 Dias + Fitness/Semana4/VID_20230325_133436.mp4</property>
    <property name="mlt_service">avformat-novalidate</property>
    <property name="seekable">1</property>
    <property name="audio_index">-1</property>
    <property name="video_index">0</property>
    <property name="mute_on_pause">0</property>
    <property name="xml">was here</property>
    <property name="shotcut:hash">ac5147026020bafaf3b56e38cec416ca</property>
    <property name="ignore_points">0</property>
    <property name="shotcut:caption">VID_20230325_133436.mp4</property>
    <property name="shotcut:defaultAudioIndex">1</property>
  </chain>
  <chain id="chain87" out="00:00:31.062">
    <property name="length">00:00:31.096</property>
    <property name="eof">pause</property>
    <property name="resource">D:/Dropbox2022/Dropbox/2023/Editar/30 Dias + Fitness/Semana3/Cronometro chamda última sequencia.mp4</property>
    <property name="mlt_service">avformat-novalidate</property>
    <property name="seekable">1</property>
    <property name="audio_index">1</property>
    <property name="video_index">0</property>
    <property name="mute_on_pause">0</property>
    <property name="xml">was here</property>
    <property name="shotcut:hash">d4447d424930359bc8d77f348596ea23</property>
    <property name="shotcut:caption">Cronometro chamda última sequencia.mp4</property>
  </chain>
  <chain id="chain88" out="00:02:00.100">
    <property name="length">00:02:00.133</property>
    <property name="eof">pause</property>
    <property name="resource">D:/Dropbox2022/Dropbox/2023/Editar/30 Dias + Fitness/Semana4/VID_20230325_133436.mp4</property>
    <property name="mlt_service">avformat-novalidate</property>
    <property name="seekable">1</property>
    <property name="audio_index">-1</property>
    <property name="video_index">0</property>
    <property name="mute_on_pause">0</property>
    <property name="xml">was here</property>
    <property name="shotcut:hash">ac5147026020bafaf3b56e38cec416ca</property>
    <property name="ignore_points">0</property>
    <property name="shotcut:caption">VID_20230325_133436.mp4</property>
    <property name="shotcut:defaultAudioIndex">1</property>
  </chain>
  <chain id="chain89" out="00:00:31.062">
    <property name="length">00:00:31.096</property>
    <property name="eof">pause</property>
    <property name="resource">D:/Dropbox2022/Dropbox/2023/Editar/30 Dias + Fitness/Semana3/Cronometro descança 30 segundos.mp4</property>
    <property name="mlt_service">avformat-novalidate</property>
    <property name="seekable">1</property>
    <property name="audio_index">1</property>
    <property name="video_index">0</property>
    <property name="mute_on_pause">0</property>
    <property name="xml">was here</property>
    <property name="shotcut:hash">75291a6e2b91d3f7a707b80f6cc4081a</property>
    <property name="shotcut:caption">Cronometro descança 30 segundos.mp4</property>
  </chain>
  <chain id="chain90" out="00:01:49.926">
    <property name="length">00:01:49.960</property>
    <property name="eof">pause</property>
    <property name="resource">D:/Dropbox2022/Dropbox/2023/Editar/30 Dias + Fitness/Semana4/VID_20230325_133728.mp4</property>
    <property name="mlt_service">avformat-novalidate</property>
    <property name="seekable">1</property>
    <property name="audio_index">-1</property>
    <property name="video_index">0</property>
    <property name="mute_on_pause">0</property>
    <property name="xml">was here</property>
    <property name="shotcut:hash">4fa35e459ab641a9d2349a41f606ba8c</property>
    <property name="ignore_points">0</property>
    <property name="shotcut:caption">VID_20230325_133728.mp4</property>
    <property name="shotcut:defaultAudioIndex">1</property>
  </chain>
  <chain id="chain91" out="00:00:31.129">
    <property name="length">00:00:31.162</property>
    <property name="eof">pause</property>
    <property name="resource">D:/Dropbox2022/Dropbox/2023/Editar/30 Dias + Fitness/Semana4/Cronometro 30 segundos.mp4</property>
    <property name="mlt_service">avformat-novalidate</property>
    <property name="seekable">1</property>
    <property name="audio_index">1</property>
    <property name="video_index">0</property>
    <property name="mute_on_pause">0</property>
    <property name="xml">was here</property>
    <property name="shotcut:hash">f4e1a6ff5963b2f62ac13e078d810f09</property>
    <property name="shotcut:caption">Cronometro 30 segundos.mp4</property>
  </chain>
  <chain id="chain92" out="00:01:49.926">
    <property name="length">00:01:49.960</property>
    <property name="eof">pause</property>
    <property name="resource">D:/Dropbox2022/Dropbox/2023/Editar/30 Dias + Fitness/Semana4/VID_20230325_133728.mp4</property>
    <property name="mlt_service">avformat-novalidate</property>
    <property name="seekable">1</property>
    <property name="audio_index">-1</property>
    <property name="video_index">0</property>
    <property name="mute_on_pause">0</property>
    <property name="xml">was here</property>
    <property name="shotcut:hash">4fa35e459ab641a9d2349a41f606ba8c</property>
    <property name="ignore_points">0</property>
    <property name="shotcut:caption">VID_20230325_133728.mp4</property>
    <property name="shotcut:defaultAudioIndex">1</property>
  </chain>
  <chain id="chain93" out="00:00:31.062">
    <property name="length">00:00:31.096</property>
    <property name="eof">pause</property>
    <property name="resource">D:/Dropbox2022/Dropbox/2023/Editar/30 Dias + Fitness/Semana3/Cronometro chamda última sequencia.mp4</property>
    <property name="mlt_service">avformat-novalidate</property>
    <property name="seekable">1</property>
    <property name="audio_index">1</property>
    <property name="video_index">0</property>
    <property name="mute_on_pause">0</property>
    <property name="xml">was here</property>
    <property name="shotcut:hash">d4447d424930359bc8d77f348596ea23</property>
    <property name="shotcut:caption">Cronometro chamda última sequencia.mp4</property>
  </chain>
  <chain id="chain94" out="00:01:49.926">
    <property name="length">00:01:49.960</property>
    <property name="eof">pause</property>
    <property name="resource">D:/Dropbox2022/Dropbox/2023/Editar/30 Dias + Fitness/Semana4/VID_20230325_133728.mp4</property>
    <property name="mlt_service">avformat-novalidate</property>
    <property name="seekable">1</property>
    <property name="audio_index">-1</property>
    <property name="video_index">0</property>
    <property name="mute_on_pause">0</property>
    <property name="xml">was here</property>
    <property name="shotcut:hash">4fa35e459ab641a9d2349a41f606ba8c</property>
    <property name="ignore_points">0</property>
    <property name="shotcut:caption">VID_20230325_133728.mp4</property>
    <property name="shotcut:defaultAudioIndex">1</property>
  </chain>
  <playlist id="playlist0">
    <property name="shotcut:video">1</property>
    <property name="shotcut:name">V1</property>
    <property name="shotcut:lock">0</property>
    <blank length="00:00:01.266"/>
    <entry producer="chain40" in="00:00:01.266" out="00:00:12.265"/>
    <entry producer="tractor0" in="00:00:00.000" out="00:00:00.567"/>
    <entry producer="chain41" in="00:00:00.600" out="00:00:10.165"/>
    <entry producer="chain42" in="00:00:01.300" out="00:00:23.063"/>
    <entry producer="tractor1" in="00:00:00.000" out="00:00:00.800"/>
    <entry producer="chain43" in="00:00:00.833" out="00:00:19.864"/>
    <entry producer="tractor2" in="00:00:00.000" out="00:00:01.266"/>
    <entry producer="chain44" in="00:00:26.196" out="00:00:54.825"/>
    <entry producer="chain45" in="00:00:00.000" out="00:00:05.633"/>
    <entry producer="chain46" in="00:00:01.233" out="00:00:18.797"/>
    <entry producer="tractor3" in="00:00:00.000" out="00:00:00.333"/>
    <entry producer="chain47" in="00:00:25.696" out="00:01:28.563"/>
    <entry producer="chain48" in="00:00:00.000" out="00:00:31.129"/>
    <entry producer="chain49" in="00:00:01.400" out="00:01:14.798"/>
    <entry producer="chain50" in="00:00:00.000" out="00:00:31.129"/>
    <entry producer="chain51" in="00:00:00.000" out="00:00:37.895"/>
    <entry producer="chain52" in="00:00:37.928" out="00:00:46.260"/>
    <entry producer="chain53" in="00:00:14.965" out="00:00:23.297"/>
    <entry producer="chain54" in="00:00:37.928" out="00:00:46.260"/>
    <entry producer="chain55" in="00:00:46.293" out="00:01:02.366"/>
    <entry producer="chain56" in="00:00:00.000" out="00:00:31.062"/>
    <entry producer="chain57" in="00:00:00.000" out="00:01:52.759"/>
    <entry producer="chain58" in="00:00:00.000" out="00:00:31.129"/>
    <entry producer="chain59" in="00:00:39.194" out="00:01:37.661"/>
    <entry producer="chain60" in="00:00:00.000" out="00:00:31.062"/>
    <entry producer="chain61" in="00:00:39.194" out="00:01:37.661"/>
    <entry producer="chain62" in="00:00:00.000" out="00:00:31.129"/>
    <entry producer="chain63" in="00:00:02.300" out="00:01:18.364"/>
    <entry producer="chain64" in="00:01:18.397" out="00:01:26.363"/>
    <entry producer="producer0" in="00:00:06.232" out="00:00:09.565"/>
    <entry producer="chain65" in="00:01:18.397" out="00:01:26.363"/>
    <entry producer="chain66" in="00:01:26.396" out="00:01:30.429"/>
    <entry producer="chain67" in="00:00:00.000" out="00:00:31.062"/>
    <entry producer="chain68" in="00:00:24.163" out="00:01:18.364"/>
    <entry producer="chain69" in="00:01:18.397" out="00:01:26.363"/>
    <entry producer="producer1" in="00:00:06.232" out="00:00:09.565"/>
    <entry producer="chain70" in="00:01:18.397" out="00:01:26.363"/>
    <entry producer="chain71" in="00:01:26.396" out="00:01:27.996"/>
    <blank length="00:00:00.033"/>
    <entry producer="chain72" in="00:00:00.000" out="00:00:31.062"/>
    <entry producer="chain73" in="00:00:24.163" out="00:01:18.364"/>
    <entry producer="chain74" in="00:01:18.397" out="00:01:26.363"/>
    <entry producer="producer2" in="00:00:06.232" out="00:00:09.565"/>
    <entry producer="chain75" in="00:01:18.397" out="00:01:26.363"/>
    <entry producer="chain76" in="00:01:26.396" out="00:01:28.229"/>
    <entry producer="chain77" in="00:00:00.000" out="00:00:31.062"/>
    <entry producer="chain78" in="00:00:04.533" out="00:01:53.159"/>
    <entry producer="chain79" in="00:00:00.000" out="00:00:31.062"/>
    <entry producer="chain80" in="00:00:31.062" out="00:01:46.860"/>
    <entry producer="chain81" in="00:00:00.000" out="00:00:31.062"/>
    <entry producer="chain82" in="00:00:31.062" out="00:01:46.860"/>
    <entry producer="chain83" in="00:00:00.000" out="00:00:31.062"/>
    <entry producer="chain84" in="00:00:00.000" out="00:01:51.126"/>
    <entry producer="chain85" in="00:00:00.000" out="00:00:31.062"/>
    <entry producer="chain86" in="00:00:15.598" out="00:01:48.793"/>
    <entry producer="chain87" in="00:00:00.000" out="00:00:31.062"/>
    <entry producer="chain88" in="00:00:15.598" out="00:01:48.793"/>
    <entry producer="chain89" in="00:00:00.000" out="00:00:31.062"/>
    <entry producer="chain90" in="00:00:03.333" out="00:01:43.260"/>
    <entry producer="chain91" in="00:00:00.000" out="00:00:31.129"/>
    <entry producer="chain92" in="00:00:28.496" out="00:01:37.561"/>
    <entry producer="chain93" in="00:00:00.000" out="00:00:31.062"/>
    <entry producer="chain94" in="00:00:28.496" out="00:01:49.926"/>
  </playlist>
  <chain id="chain95" out="00:01:46.693">
    <property name="length">00:01:46.727</property>
    <property name="eof">pause</property>
    <property name="resource">D:/Dropbox2022/Dropbox/2023/Editar/30 Dias + Fitness/Semana4/VID_20230325_131147.mp4</property>
    <property name="mlt_service">avformat-novalidate</property>
    <property name="seekable">1</property>
    <property name="audio_index">1</property>
    <property name="video_index">-1</property>
    <property name="mute_on_pause">0</property>
    <property name="xml">was here</property>
    <property name="shotcut:hash">e3a45b35ddf8870bcc62eaef67866db4</property>
    <property name="ignore_points">0</property>
    <property name="shotcut:caption">VID_20230325_131147.mp4</property>
    <property name="shotcut:defaultAudioIndex">1</property>
  </chain>
  <chain id="chain96" out="00:01:46.693">
    <property name="length">00:01:46.727</property>
    <property name="eof">pause</property>
    <property name="resource">D:/Dropbox2022/Dropbox/2023/Editar/30 Dias + Fitness/Semana4/VID_20230325_131147.mp4</property>
    <property name="mlt_service">avformat-novalidate</property>
    <property name="seekable">1</property>
    <property name="audio_index">1</property>
    <property name="video_index">-1</property>
    <property name="mute_on_pause">0</property>
    <property name="xml">was here</property>
    <property name="shotcut:hash">e3a45b35ddf8870bcc62eaef67866db4</property>
    <property name="ignore_points">0</property>
    <property name="shotcut:caption">VID_20230325_131147.mp4</property>
    <property name="shotcut:defaultAudioIndex">1</property>
  </chain>
  <chain id="chain97" out="00:01:14.798">
    <property name="length">00:01:14.831</property>
    <property name="eof">pause</property>
    <property name="resource">D:/Dropbox2022/Dropbox/2023/Editar/30 Dias + Fitness/Semana4/VID_20230325_131528.mp4</property>
    <property name="mlt_service">avformat-novalidate</property>
    <property name="seekable">1</property>
    <property name="audio_index">1</property>
    <property name="video_index">-1</property>
    <property name="mute_on_pause">0</property>
    <property name="xml">was here</property>
    <property name="shotcut:hash">7f50e139f5085ca2556849dd2def491f</property>
    <property name="ignore_points">0</property>
    <property name="shotcut:caption">VID_20230325_131528.mp4</property>
    <property name="shotcut:skipConvert">1</property>
    <property name="shotcut:defaultAudioIndex">1</property>
  </chain>
  <chain id="chain98" out="00:01:14.798">
    <property name="length">00:01:14.831</property>
    <property name="eof">pause</property>
    <property name="resource">D:/Dropbox2022/Dropbox/2023/Editar/30 Dias + Fitness/Semana4/VID_20230325_131528.mp4</property>
    <property name="mlt_service">avformat-novalidate</property>
    <property name="seekable">1</property>
    <property name="audio_index">1</property>
    <property name="video_index">-1</property>
    <property name="mute_on_pause">0</property>
    <property name="xml">was here</property>
    <property name="shotcut:hash">7f50e139f5085ca2556849dd2def491f</property>
    <property name="ignore_points">0</property>
    <property name="shotcut:caption">VID_20230325_131528.mp4</property>
    <property name="shotcut:skipConvert">1</property>
    <property name="shotcut:defaultAudioIndex">1</property>
  </chain>
  <chain id="chain99" out="00:01:16.631">
    <property name="length">00:01:16.664</property>
    <property name="eof">pause</property>
    <property name="resource">D:/Dropbox2022/Dropbox/2023/Editar/30 Dias + Fitness/Semana4/VID_20230325_131912.mp4</property>
    <property name="mlt_service">avformat-novalidate</property>
    <property name="seekable">1</property>
    <property name="audio_index">1</property>
    <property name="video_index">-1</property>
    <property name="mute_on_pause">0</property>
    <property name="xml">was here</property>
    <property name="shotcut:hash">547021bf3a317d5ca3f1758d93c365d2</property>
    <property name="ignore_points">0</property>
    <property name="shotcut:caption">VID_20230325_131912.mp4</property>
    <property name="shotcut:defaultAudioIndex">1</property>
  </chain>
  <chain id="chain100" out="00:01:55.359">
    <property name="length">00:01:55.392</property>
    <property name="eof">pause</property>
    <property name="resource">D:/Dropbox2022/Dropbox/2023/Editar/30 Dias + Fitness/Semana4/VID_20230325_132236.mp4</property>
    <property name="mlt_service">avformat-novalidate</property>
    <property name="seekable">1</property>
    <property name="audio_index">1</property>
    <property name="video_index">-1</property>
    <property name="mute_on_pause">0</property>
    <property name="xml">was here</property>
    <property name="shotcut:hash">50e807b8938ccc89de3033ec78512b2d</property>
    <property name="ignore_points">0</property>
    <property name="shotcut:caption">VID_20230325_132236.mp4</property>
    <property name="shotcut:skipConvert">1</property>
    <property name="shotcut:defaultAudioIndex">1</property>
  </chain>
  <chain id="chain101" out="00:01:55.359">
    <property name="length">00:01:55.392</property>
    <property name="eof">pause</property>
    <property name="resource">D:/Dropbox2022/Dropbox/2023/Editar/30 Dias + Fitness/Semana4/VID_20230325_132236.mp4</property>
    <property name="mlt_service">avformat-novalidate</property>
    <property name="seekable">1</property>
    <property name="audio_index">1</property>
    <property name="video_index">-1</property>
    <property name="mute_on_pause">0</property>
    <property name="xml">was here</property>
    <property name="shotcut:hash">50e807b8938ccc89de3033ec78512b2d</property>
    <property name="ignore_points">0</property>
    <property name="shotcut:caption">VID_20230325_132236.mp4</property>
    <property name="shotcut:skipConvert">1</property>
    <property name="shotcut:defaultAudioIndex">1</property>
  </chain>
  <chain id="chain102" out="00:01:55.359">
    <property name="length">00:01:55.392</property>
    <property name="eof">pause</property>
    <property name="resource">D:/Dropbox2022/Dropbox/2023/Editar/30 Dias + Fitness/Semana4/VID_20230325_132236.mp4</property>
    <property name="mlt_service">avformat-novalidate</property>
    <property name="seekable">1</property>
    <property name="audio_index">1</property>
    <property name="video_index">-1</property>
    <property name="mute_on_pause">0</property>
    <property name="xml">was here</property>
    <property name="shotcut:hash">50e807b8938ccc89de3033ec78512b2d</property>
    <property name="ignore_points">0</property>
    <property name="shotcut:caption">VID_20230325_132236.mp4</property>
    <property name="shotcut:skipConvert">1</property>
    <property name="shotcut:defaultAudioIndex">1</property>
  </chain>
  <chain id="chain103" out="00:01:55.359">
    <property name="length">00:01:55.392</property>
    <property name="eof">pause</property>
    <property name="resource">D:/Dropbox2022/Dropbox/2023/Editar/30 Dias + Fitness/Semana4/VID_20230325_132236.mp4</property>
    <property name="mlt_service">avformat-novalidate</property>
    <property name="seekable">1</property>
    <property name="audio_index">1</property>
    <property name="video_index">-1</property>
    <property name="mute_on_pause">0</property>
    <property name="xml">was here</property>
    <property name="shotcut:hash">50e807b8938ccc89de3033ec78512b2d</property>
    <property name="ignore_points">0</property>
    <property name="shotcut:caption">VID_20230325_132236.mp4</property>
    <property name="shotcut:skipConvert">1</property>
    <property name="shotcut:defaultAudioIndex">1</property>
  </chain>
  <chain id="chain104" out="00:01:55.359">
    <property name="length">00:01:55.392</property>
    <property name="eof">pause</property>
    <property name="resource">D:/Dropbox2022/Dropbox/2023/Editar/30 Dias + Fitness/Semana4/VID_20230325_132236.mp4</property>
    <property name="mlt_service">avformat-novalidate</property>
    <property name="seekable">1</property>
    <property name="audio_index">1</property>
    <property name="video_index">-1</property>
    <property name="mute_on_pause">0</property>
    <property name="xml">was here</property>
    <property name="shotcut:hash">50e807b8938ccc89de3033ec78512b2d</property>
    <property name="ignore_points">0</property>
    <property name="shotcut:caption">VID_20230325_132236.mp4</property>
    <property name="shotcut:skipConvert">1</property>
    <property name="shotcut:defaultAudioIndex">1</property>
  </chain>
  <chain id="chain105" out="00:02:02.733">
    <property name="length">00:02:02.766</property>
    <property name="eof">pause</property>
    <property name="resource">D:/Dropbox2022/Dropbox/2023/Editar/30 Dias + Fitness/Semana4/VID_20230325_140057.mp4</property>
    <property name="mlt_service">avformat-novalidate</property>
    <property name="seekable">1</property>
    <property name="audio_index">1</property>
    <property name="video_index">-1</property>
    <property name="mute_on_pause">0</property>
    <property name="xml">was here</property>
    <property name="shotcut:hash">187b885b118520b8cc470310114fd4c3</property>
    <property name="ignore_points">0</property>
    <property name="shotcut:caption">VID_20230325_140057.mp4</property>
    <property name="shotcut:defaultAudioIndex">1</property>
  </chain>
  <chain id="chain106" out="00:02:21.964">
    <property name="length">00:02:21.997</property>
    <property name="eof">pause</property>
    <property name="resource">D:/Dropbox2022/Dropbox/2023/Editar/30 Dias + Fitness/Semana4/VID_20230325_132538.mp4</property>
    <property name="mlt_service">avformat-novalidate</property>
    <property name="seekable">1</property>
    <property name="audio_index">1</property>
    <property name="video_index">-1</property>
    <property name="mute_on_pause">0</property>
    <property name="xml">was here</property>
    <property name="shotcut:hash">2a5aea7188dc9ddeae4b35ebcbc42cba</property>
    <property name="ignore_points">0</property>
    <property name="shotcut:caption">VID_20230325_132538.mp4</property>
    <property name="shotcut:defaultAudioIndex">1</property>
  </chain>
  <chain id="chain107" out="00:02:21.964">
    <property name="length">00:02:21.997</property>
    <property name="eof">pause</property>
    <property name="resource">D:/Dropbox2022/Dropbox/2023/Editar/30 Dias + Fitness/Semana4/VID_20230325_132538.mp4</property>
    <property name="mlt_service">avformat-novalidate</property>
    <property name="seekable">1</property>
    <property name="audio_index">1</property>
    <property name="video_index">-1</property>
    <property name="mute_on_pause">0</property>
    <property name="xml">was here</property>
    <property name="shotcut:hash">2a5aea7188dc9ddeae4b35ebcbc42cba</property>
    <property name="ignore_points">0</property>
    <property name="shotcut:caption">VID_20230325_132538.mp4</property>
    <property name="shotcut:defaultAudioIndex">1</property>
  </chain>
  <chain id="chain108" out="00:01:55.359">
    <property name="length">00:01:55.392</property>
    <property name="eof">pause</property>
    <property name="resource">D:/Dropbox2022/Dropbox/2023/Editar/30 Dias + Fitness/Semana4/VID_20230325_132236.mp4</property>
    <property name="mlt_service">avformat-novalidate</property>
    <property name="seekable">1</property>
    <property name="audio_index">1</property>
    <property name="video_index">-1</property>
    <property name="mute_on_pause">0</property>
    <property name="xml">was here</property>
    <property name="shotcut:hash">50e807b8938ccc89de3033ec78512b2d</property>
    <property name="ignore_points">0</property>
    <property name="shotcut:caption">VID_20230325_132236.mp4</property>
    <property name="shotcut:skipConvert">1</property>
    <property name="shotcut:defaultAudioIndex">1</property>
  </chain>
  <chain id="chain109" out="00:01:55.359">
    <property name="length">00:01:55.392</property>
    <property name="eof">pause</property>
    <property name="resource">D:/Dropbox2022/Dropbox/2023/Editar/30 Dias + Fitness/Semana4/VID_20230325_132236.mp4</property>
    <property name="mlt_service">avformat-novalidate</property>
    <property name="seekable">1</property>
    <property name="audio_index">1</property>
    <property name="video_index">-1</property>
    <property name="mute_on_pause">0</property>
    <property name="xml">was here</property>
    <property name="shotcut:hash">50e807b8938ccc89de3033ec78512b2d</property>
    <property name="ignore_points">0</property>
    <property name="shotcut:caption">VID_20230325_132236.mp4</property>
    <property name="shotcut:skipConvert">1</property>
    <property name="shotcut:defaultAudioIndex">1</property>
  </chain>
  <chain id="chain110" out="00:02:21.964">
    <property name="length">00:02:21.997</property>
    <property name="eof">pause</property>
    <property name="resource">D:/Dropbox2022/Dropbox/2023/Editar/30 Dias + Fitness/Semana4/VID_20230325_132538.mp4</property>
    <property name="mlt_service">avformat-novalidate</property>
    <property name="seekable">1</property>
    <property name="audio_index">1</property>
    <property name="video_index">-1</property>
    <property name="mute_on_pause">0</property>
    <property name="xml">was here</property>
    <property name="shotcut:hash">2a5aea7188dc9ddeae4b35ebcbc42cba</property>
    <property name="ignore_points">0</property>
    <property name="shotcut:caption">VID_20230325_132538.mp4</property>
    <property name="shotcut:defaultAudioIndex">1</property>
  </chain>
  <chain id="chain111" out="00:02:02.733">
    <property name="length">00:02:02.766</property>
    <property name="eof">pause</property>
    <property name="resource">D:/Dropbox2022/Dropbox/2023/Editar/30 Dias + Fitness/Semana4/VID_20230325_140057.mp4</property>
    <property name="mlt_service">avformat-novalidate</property>
    <property name="seekable">1</property>
    <property name="audio_index">1</property>
    <property name="video_index">0</property>
    <property name="mute_on_pause">0</property>
    <property name="xml">was here</property>
    <property name="shotcut:hash">187b885b118520b8cc470310114fd4c3</property>
    <property name="ignore_points">0</property>
    <property name="shotcut:caption">VID_20230325_140057.mp4</property>
  </chain>
  <chain id="chain112" out="00:01:55.359">
    <property name="length">00:01:55.392</property>
    <property name="eof">pause</property>
    <property name="resource">D:/Dropbox2022/Dropbox/2023/Editar/30 Dias + Fitness/Semana4/VID_20230325_132236.mp4</property>
    <property name="mlt_service">avformat-novalidate</property>
    <property name="seekable">1</property>
    <property name="audio_index">1</property>
    <property name="video_index">-1</property>
    <property name="mute_on_pause">0</property>
    <property name="xml">was here</property>
    <property name="shotcut:hash">50e807b8938ccc89de3033ec78512b2d</property>
    <property name="ignore_points">0</property>
    <property name="shotcut:caption">VID_20230325_132236.mp4</property>
    <property name="shotcut:skipConvert">1</property>
    <property name="shotcut:defaultAudioIndex">1</property>
  </chain>
  <chain id="chain113" out="00:01:55.359">
    <property name="length">00:01:55.392</property>
    <property name="eof">pause</property>
    <property name="resource">D:/Dropbox2022/Dropbox/2023/Editar/30 Dias + Fitness/Semana4/VID_20230325_132236.mp4</property>
    <property name="mlt_service">avformat-novalidate</property>
    <property name="seekable">1</property>
    <property name="audio_index">1</property>
    <property name="video_index">-1</property>
    <property name="mute_on_pause">0</property>
    <property name="xml">was here</property>
    <property name="shotcut:hash">50e807b8938ccc89de3033ec78512b2d</property>
    <property name="ignore_points">0</property>
    <property name="shotcut:caption">VID_20230325_132236.mp4</property>
    <property name="shotcut:skipConvert">1</property>
    <property name="shotcut:defaultAudioIndex">1</property>
  </chain>
  <chain id="chain114" out="00:01:55.359">
    <property name="length">00:01:55.392</property>
    <property name="eof">pause</property>
    <property name="resource">D:/Dropbox2022/Dropbox/2023/Editar/30 Dias + Fitness/Semana4/VID_20230325_132236.mp4</property>
    <property name="mlt_service">avformat-novalidate</property>
    <property name="seekable">1</property>
    <property name="audio_index">1</property>
    <property name="video_index">-1</property>
    <property name="mute_on_pause">0</property>
    <property name="xml">was here</property>
    <property name="shotcut:hash">50e807b8938ccc89de3033ec78512b2d</property>
    <property name="ignore_points">0</property>
    <property name="shotcut:caption">VID_20230325_132236.mp4</property>
    <property name="shotcut:skipConvert">1</property>
    <property name="shotcut:defaultAudioIndex">1</property>
  </chain>
  <chain id="chain115" out="00:01:55.359">
    <property name="length">00:01:55.392</property>
    <property name="eof">pause</property>
    <property name="resource">D:/Dropbox2022/Dropbox/2023/Editar/30 Dias + Fitness/Semana4/VID_20230325_132236.mp4</property>
    <property name="mlt_service">avformat-novalidate</property>
    <property name="seekable">1</property>
    <property name="audio_index">1</property>
    <property name="video_index">-1</property>
    <property name="mute_on_pause">0</property>
    <property name="xml">was here</property>
    <property name="shotcut:hash">50e807b8938ccc89de3033ec78512b2d</property>
    <property name="ignore_points">0</property>
    <property name="shotcut:caption">VID_20230325_132236.mp4</property>
    <property name="shotcut:skipConvert">1</property>
    <property name="shotcut:defaultAudioIndex">1</property>
  </chain>
  <chain id="chain116" out="00:01:59.458">
    <property name="length">00:01:59.491</property>
    <property name="eof">pause</property>
    <property name="resource">D:/Dropbox2022/Dropbox/2023/Editar/30 Dias + Fitness/Semana4/VID_20230325_133146.mp4</property>
    <property name="mlt_service">avformat-novalidate</property>
    <property name="seekable">1</property>
    <property name="audio_index">1</property>
    <property name="video_index">-1</property>
    <property name="mute_on_pause">0</property>
    <property name="xml">was here</property>
    <property name="shotcut:hash">1951673e6fa858b77b44f0140c371ff0</property>
    <property name="ignore_points">0</property>
    <property name="shotcut:caption">VID_20230325_133146.mp4</property>
    <property name="shotcut:defaultAudioIndex">1</property>
  </chain>
  <chain id="chain117" out="00:01:59.458">
    <property name="length">00:01:59.491</property>
    <property name="eof">pause</property>
    <property name="resource">D:/Dropbox2022/Dropbox/2023/Editar/30 Dias + Fitness/Semana4/VID_20230325_133146.mp4</property>
    <property name="mlt_service">avformat-novalidate</property>
    <property name="seekable">1</property>
    <property name="audio_index">1</property>
    <property name="video_index">-1</property>
    <property name="mute_on_pause">0</property>
    <property name="xml">was here</property>
    <property name="shotcut:hash">1951673e6fa858b77b44f0140c371ff0</property>
    <property name="ignore_points">0</property>
    <property name="shotcut:caption">VID_20230325_133146.mp4</property>
    <property name="shotcut:defaultAudioIndex">1</property>
  </chain>
  <chain id="chain118" out="00:01:59.458">
    <property name="length">00:01:59.491</property>
    <property name="eof">pause</property>
    <property name="resource">D:/Dropbox2022/Dropbox/2023/Editar/30 Dias + Fitness/Semana4/VID_20230325_133146.mp4</property>
    <property name="mlt_service">avformat-novalidate</property>
    <property name="seekable">1</property>
    <property name="audio_index">1</property>
    <property name="video_index">-1</property>
    <property name="mute_on_pause">0</property>
    <property name="xml">was here</property>
    <property name="shotcut:hash">1951673e6fa858b77b44f0140c371ff0</property>
    <property name="ignore_points">0</property>
    <property name="shotcut:caption">VID_20230325_133146.mp4</property>
    <property name="shotcut:defaultAudioIndex">1</property>
  </chain>
  <chain id="chain119" out="00:01:59.458">
    <property name="length">00:01:59.491</property>
    <property name="eof">pause</property>
    <property name="resource">D:/Dropbox2022/Dropbox/2023/Editar/30 Dias + Fitness/Semana4/VID_20230325_133146.mp4</property>
    <property name="mlt_service">avformat-novalidate</property>
    <property name="seekable">1</property>
    <property name="audio_index">1</property>
    <property name="video_index">-1</property>
    <property name="mute_on_pause">0</property>
    <property name="xml">was here</property>
    <property name="shotcut:hash">1951673e6fa858b77b44f0140c371ff0</property>
    <property name="ignore_points">0</property>
    <property name="shotcut:caption">VID_20230325_133146.mp4</property>
    <property name="shotcut:defaultAudioIndex">1</property>
  </chain>
  <chain id="chain120" out="00:01:59.458">
    <property name="length">00:01:59.491</property>
    <property name="eof">pause</property>
    <property name="resource">D:/Dropbox2022/Dropbox/2023/Editar/30 Dias + Fitness/Semana4/VID_20230325_133146.mp4</property>
    <property name="mlt_service">avformat-novalidate</property>
    <property name="seekable">1</property>
    <property name="audio_index">1</property>
    <property name="video_index">-1</property>
    <property name="mute_on_pause">0</property>
    <property name="xml">was here</property>
    <property name="shotcut:hash">1951673e6fa858b77b44f0140c371ff0</property>
    <property name="ignore_points">0</property>
    <property name="shotcut:caption">VID_20230325_133146.mp4</property>
    <property name="shotcut:defaultAudioIndex">1</property>
  </chain>
  <chain id="chain121" out="00:01:59.458">
    <property name="length">00:01:59.491</property>
    <property name="eof">pause</property>
    <property name="resource">D:/Dropbox2022/Dropbox/2023/Editar/30 Dias + Fitness/Semana4/VID_20230325_133146.mp4</property>
    <property name="mlt_service">avformat-novalidate</property>
    <property name="seekable">1</property>
    <property name="audio_index">1</property>
    <property name="video_index">-1</property>
    <property name="mute_on_pause">0</property>
    <property name="xml">was here</property>
    <property name="shotcut:hash">1951673e6fa858b77b44f0140c371ff0</property>
    <property name="ignore_points">0</property>
    <property name="shotcut:caption">VID_20230325_133146.mp4</property>
    <property name="shotcut:defaultAudioIndex">1</property>
  </chain>
  <chain id="chain122" out="00:01:59.458">
    <property name="length">00:01:59.491</property>
    <property name="eof">pause</property>
    <property name="resource">D:/Dropbox2022/Dropbox/2023/Editar/30 Dias + Fitness/Semana4/VID_20230325_133146.mp4</property>
    <property name="mlt_service">avformat-novalidate</property>
    <property name="seekable">1</property>
    <property name="audio_index">1</property>
    <property name="video_index">-1</property>
    <property name="mute_on_pause">0</property>
    <property name="xml">was here</property>
    <property name="shotcut:hash">1951673e6fa858b77b44f0140c371ff0</property>
    <property name="ignore_points">0</property>
    <property name="shotcut:caption">VID_20230325_133146.mp4</property>
    <property name="shotcut:defaultAudioIndex">1</property>
  </chain>
  <chain id="chain123" out="00:02:00.100">
    <property name="length">00:02:00.133</property>
    <property name="eof">pause</property>
    <property name="resource">D:/Dropbox2022/Dropbox/2023/Editar/30 Dias + Fitness/Semana4/VID_20230325_133436.mp4</property>
    <property name="mlt_service">avformat-novalidate</property>
    <property name="seekable">1</property>
    <property name="audio_index">1</property>
    <property name="video_index">-1</property>
    <property name="mute_on_pause">0</property>
    <property name="xml">was here</property>
    <property name="shotcut:hash">ac5147026020bafaf3b56e38cec416ca</property>
    <property name="ignore_points">0</property>
    <property name="shotcut:caption">VID_20230325_133436.mp4</property>
    <property name="shotcut:defaultAudioIndex">1</property>
  </chain>
  <chain id="chain124" out="00:02:00.100">
    <property name="length">00:02:00.133</property>
    <property name="eof">pause</property>
    <property name="resource">D:/Dropbox2022/Dropbox/2023/Editar/30 Dias + Fitness/Semana4/VID_20230325_133436.mp4</property>
    <property name="mlt_service">avformat-novalidate</property>
    <property name="seekable">1</property>
    <property name="audio_index">1</property>
    <property name="video_index">-1</property>
    <property name="mute_on_pause">0</property>
    <property name="xml">was here</property>
    <property name="shotcut:hash">ac5147026020bafaf3b56e38cec416ca</property>
    <property name="ignore_points">0</property>
    <property name="shotcut:caption">VID_20230325_133436.mp4</property>
    <property name="shotcut:defaultAudioIndex">1</property>
  </chain>
  <chain id="chain125" out="00:02:00.100">
    <property name="length">00:02:00.133</property>
    <property name="eof">pause</property>
    <property name="resource">D:/Dropbox2022/Dropbox/2023/Editar/30 Dias + Fitness/Semana4/VID_20230325_133436.mp4</property>
    <property name="mlt_service">avformat-novalidate</property>
    <property name="seekable">1</property>
    <property name="audio_index">1</property>
    <property name="video_index">-1</property>
    <property name="mute_on_pause">0</property>
    <property name="xml">was here</property>
    <property name="shotcut:hash">ac5147026020bafaf3b56e38cec416ca</property>
    <property name="ignore_points">0</property>
    <property name="shotcut:caption">VID_20230325_133436.mp4</property>
    <property name="shotcut:defaultAudioIndex">1</property>
  </chain>
  <chain id="chain126" out="00:02:00.100">
    <property name="length">00:02:00.133</property>
    <property name="eof">pause</property>
    <property name="resource">D:/Dropbox2022/Dropbox/2023/Editar/30 Dias + Fitness/Semana4/VID_20230325_133436.mp4</property>
    <property name="mlt_service">avformat-novalidate</property>
    <property name="seekable">1</property>
    <property name="audio_index">1</property>
    <property name="video_index">-1</property>
    <property name="mute_on_pause">0</property>
    <property name="xml">was here</property>
    <property name="shotcut:hash">ac5147026020bafaf3b56e38cec416ca</property>
    <property name="ignore_points">0</property>
    <property name="shotcut:caption">VID_20230325_133436.mp4</property>
    <property name="shotcut:defaultAudioIndex">1</property>
  </chain>
  <chain id="chain127" out="00:02:00.100">
    <property name="length">00:02:00.133</property>
    <property name="eof">pause</property>
    <property name="resource">D:/Dropbox2022/Dropbox/2023/Editar/30 Dias + Fitness/Semana4/VID_20230325_133436.mp4</property>
    <property name="mlt_service">avformat-novalidate</property>
    <property name="seekable">1</property>
    <property name="audio_index">1</property>
    <property name="video_index">-1</property>
    <property name="mute_on_pause">0</property>
    <property name="xml">was here</property>
    <property name="shotcut:hash">ac5147026020bafaf3b56e38cec416ca</property>
    <property name="ignore_points">0</property>
    <property name="shotcut:caption">VID_20230325_133436.mp4</property>
    <property name="shotcut:defaultAudioIndex">1</property>
  </chain>
  <chain id="chain128" out="00:01:49.926">
    <property name="length">00:01:49.960</property>
    <property name="eof">pause</property>
    <property name="resource">D:/Dropbox2022/Dropbox/2023/Editar/30 Dias + Fitness/Semana4/VID_20230325_133728.mp4</property>
    <property name="mlt_service">avformat-novalidate</property>
    <property name="seekable">1</property>
    <property name="audio_index">1</property>
    <property name="video_index">-1</property>
    <property name="mute_on_pause">0</property>
    <property name="xml">was here</property>
    <property name="shotcut:hash">4fa35e459ab641a9d2349a41f606ba8c</property>
    <property name="ignore_points">0</property>
    <property name="shotcut:caption">VID_20230325_133728.mp4</property>
    <property name="shotcut:defaultAudioIndex">1</property>
  </chain>
  <chain id="chain129" out="00:01:49.926">
    <property name="length">00:01:49.960</property>
    <property name="eof">pause</property>
    <property name="resource">D:/Dropbox2022/Dropbox/2023/Editar/30 Dias + Fitness/Semana4/VID_20230325_133728.mp4</property>
    <property name="mlt_service">avformat-novalidate</property>
    <property name="seekable">1</property>
    <property name="audio_index">1</property>
    <property name="video_index">-1</property>
    <property name="mute_on_pause">0</property>
    <property name="xml">was here</property>
    <property name="shotcut:hash">4fa35e459ab641a9d2349a41f606ba8c</property>
    <property name="ignore_points">0</property>
    <property name="shotcut:caption">VID_20230325_133728.mp4</property>
    <property name="shotcut:defaultAudioIndex">1</property>
  </chain>
  <chain id="chain130" out="00:01:49.926">
    <property name="length">00:01:49.960</property>
    <property name="eof">pause</property>
    <property name="resource">D:/Dropbox2022/Dropbox/2023/Editar/30 Dias + Fitness/Semana4/VID_20230325_133728.mp4</property>
    <property name="mlt_service">avformat-novalidate</property>
    <property name="seekable">1</property>
    <property name="audio_index">1</property>
    <property name="video_index">-1</property>
    <property name="mute_on_pause">0</property>
    <property name="xml">was here</property>
    <property name="shotcut:hash">4fa35e459ab641a9d2349a41f606ba8c</property>
    <property name="ignore_points">0</property>
    <property name="shotcut:caption">VID_20230325_133728.mp4</property>
    <property name="shotcut:defaultAudioIndex">1</property>
  </chain>
  <chain id="chain131" out="00:01:49.926">
    <property name="length">00:01:49.960</property>
    <property name="eof">pause</property>
    <property name="resource">D:/Dropbox2022/Dropbox/2023/Editar/30 Dias + Fitness/Semana4/VID_20230325_133728.mp4</property>
    <property name="mlt_service">avformat-novalidate</property>
    <property name="seekable">1</property>
    <property name="audio_index">1</property>
    <property name="video_index">-1</property>
    <property name="mute_on_pause">0</property>
    <property name="xml">was here</property>
    <property name="shotcut:hash">4fa35e459ab641a9d2349a41f606ba8c</property>
    <property name="ignore_points">0</property>
    <property name="shotcut:caption">VID_20230325_133728.mp4</property>
    <property name="shotcut:defaultAudioIndex">1</property>
  </chain>
  <chain id="chain132" out="00:01:49.926">
    <property name="length">00:01:49.960</property>
    <property name="eof">pause</property>
    <property name="resource">D:/Dropbox2022/Dropbox/2023/Editar/30 Dias + Fitness/Semana4/VID_20230325_133728.mp4</property>
    <property name="mlt_service">avformat-novalidate</property>
    <property name="seekable">1</property>
    <property name="audio_index">1</property>
    <property name="video_index">-1</property>
    <property name="mute_on_pause">0</property>
    <property name="xml">was here</property>
    <property name="shotcut:hash">4fa35e459ab641a9d2349a41f606ba8c</property>
    <property name="ignore_points">0</property>
    <property name="shotcut:caption">VID_20230325_133728.mp4</property>
    <property name="shotcut:defaultAudioIndex">1</property>
  </chain>
  <chain id="chain133" out="00:01:49.926">
    <property name="length">00:01:49.960</property>
    <property name="eof">pause</property>
    <property name="resource">D:/Dropbox2022/Dropbox/2023/Editar/30 Dias + Fitness/Semana4/VID_20230325_133728.mp4</property>
    <property name="mlt_service">avformat-novalidate</property>
    <property name="seekable">1</property>
    <property name="audio_index">1</property>
    <property name="video_index">-1</property>
    <property name="mute_on_pause">0</property>
    <property name="xml">was here</property>
    <property name="shotcut:hash">4fa35e459ab641a9d2349a41f606ba8c</property>
    <property name="ignore_points">0</property>
    <property name="shotcut:caption">VID_20230325_133728.mp4</property>
    <property name="shotcut:defaultAudioIndex">1</property>
  </chain>
  <chain id="chain134" out="00:01:49.926">
    <property name="length">00:01:49.960</property>
    <property name="eof">pause</property>
    <property name="resource">D:/Dropbox2022/Dropbox/2023/Editar/30 Dias + Fitness/Semana4/VID_20230325_133728.mp4</property>
    <property name="mlt_service">avformat-novalidate</property>
    <property name="seekable">1</property>
    <property name="audio_index">1</property>
    <property name="video_index">-1</property>
    <property name="mute_on_pause">0</property>
    <property name="xml">was here</property>
    <property name="shotcut:hash">4fa35e459ab641a9d2349a41f606ba8c</property>
    <property name="ignore_points">0</property>
    <property name="shotcut:caption">VID_20230325_133728.mp4</property>
    <property name="shotcut:defaultAudioIndex">1</property>
  </chain>
  <playlist id="playlist1">
    <property name="shotcut:audio">1</property>
    <property name="shotcut:name">A1</property>
    <property name="shotcut:lock">0</property>
    <blank length="00:01:57.425"/>
    <entry producer="chain95" in="00:00:25.330" out="00:00:42.694"/>
    <blank length="00:00:47.327"/>
    <entry producer="chain96" in="00:01:35.062" out="00:01:44.694"/>
    <blank length="00:00:20.030"/>
    <entry producer="chain97" in="00:00:01.400" out="00:00:21.964"/>
    <blank length="00:00:41.861"/>
    <entry producer="chain98" in="00:01:03.866" out="00:01:14.798"/>
    <blank length="00:00:31.162"/>
    <entry producer="chain99" in="00:00:00.000" out="00:00:23.163"/>
    <blank length="00:01:27.029"/>
    <entry producer="chain100" in="00:00:00.000" out="00:00:44.594"/>
    <blank length="00:00:31.029"/>
    <entry producer="chain101" in="00:01:15.664" out="00:01:38.061"/>
    <blank length="00:00:03.766"/>
    <entry producer="chain102" in="00:01:41.861" out="00:01:55.359"/>
    <blank length="00:01:05.266"/>
    <entry producer="chain103" in="00:01:15.898" out="00:01:37.661"/>
    <blank length="00:01:11.332"/>
    <entry producer="chain104" in="00:01:19.431" out="00:01:37.661"/>
    <blank length="00:00:27.196"/>
    <entry producer="chain105" in="00:01:00.467" out="00:01:03.300"/>
    <blank length="00:00:01.100"/>
    <entry producer="chain106" in="00:00:02.300" out="00:00:30.562"/>
    <blank length="00:00:40.461"/>
    <entry producer="chain107" in="00:01:11.065" out="00:01:21.297"/>
    <entry producer="chain108" in="00:01:19.431" out="00:01:25.796"/>
    <blank length="00:00:01.133"/>
    <entry producer="chain109" in="00:01:27.129" out="00:01:37.661"/>
    <entry producer="chain110" in="00:01:29.029" out="00:01:31.396"/>
    <blank length="00:00:26.396"/>
    <entry producer="chain111" in="00:01:52.759" out="00:01:56.259"/>
    <blank length="00:01:01.666"/>
    <entry producer="chain112" in="00:01:22.763" out="00:01:25.796"/>
    <blank length="00:00:04.633"/>
    <entry producer="chain113" in="00:01:30.629" out="00:01:37.661"/>
    <blank length="00:01:29.629"/>
    <entry producer="chain114" in="00:01:20.597" out="00:01:25.796"/>
    <blank length="00:00:04.633"/>
    <entry producer="chain115" in="00:01:30.629" out="00:01:37.661"/>
    <blank length="00:00:31.096"/>
    <entry producer="chain116" in="00:00:04.533" out="00:00:44.660"/>
    <blank length="00:00:36.395"/>
    <entry producer="chain117" in="00:01:21.097" out="00:01:47.193"/>
    <blank length="00:01:27.796"/>
    <entry producer="chain118" in="00:01:21.797" out="00:01:29.862"/>
    <blank length="00:00:02.133"/>
    <entry producer="chain119" in="00:01:32.029" out="00:01:46.860"/>
    <blank length="00:01:25.496"/>
    <entry producer="chain120" in="00:01:25.463" out="00:01:29.862"/>
    <blank length="00:00:02.133"/>
    <entry producer="chain121" in="00:01:32.029" out="00:01:35.228"/>
    <blank length="00:00:04.566"/>
    <entry producer="chain122" in="00:01:39.828" out="00:01:46.860"/>
    <blank length="00:00:31.096"/>
    <entry producer="chain123" in="00:00:00.000" out="00:00:21.697"/>
    <blank length="00:00:33.728"/>
    <entry producer="chain124" in="00:00:55.459" out="00:00:57.425"/>
    <blank length="00:00:47.726"/>
    <entry producer="chain125" in="00:01:45.194" out="00:01:51.126"/>
    <blank length="00:01:09.765"/>
    <entry producer="chain126" in="00:00:55.459" out="00:00:57.425"/>
    <blank length="00:02:03.333"/>
    <entry producer="chain127" in="00:00:55.459" out="00:00:57.425"/>
    <blank length="00:01:22.663"/>
    <entry producer="chain128" in="00:00:03.333" out="00:00:33.395"/>
    <blank length="00:00:13.798"/>
    <entry producer="chain129" in="00:00:47.227" out="00:01:09.799"/>
    <blank length="00:00:13.231"/>
    <entry producer="chain130" in="00:01:23.063" out="00:01:37.895"/>
    <blank length="00:00:55.492"/>
    <entry producer="chain131" in="00:00:47.460" out="00:01:08.132"/>
    <blank length="00:00:14.365"/>
    <entry producer="chain132" in="00:01:22.530" out="00:01:37.561"/>
    <blank length="00:00:52.326"/>
    <entry producer="chain133" in="00:00:49.726" out="00:01:07.532"/>
    <blank length="00:00:15.564"/>
    <entry producer="chain134" in="00:01:23.130" out="00:01:42.361"/>
  </playlist>
  <chain id="chain135" out="00:32:50.393">
    <property name="length">00:32:50.426</property>
    <property name="eof">pause</property>
    <property name="resource">D:/Dropbox2022/Dropbox/2023/Editar/30 Dias + Fitness/Semana4/FUNK BRASILERO   CARDIO DANCE FITNESS ✅�.mp3</property>
    <property name="mlt_service">avformat-novalidate</property>
    <property name="seekable">1</property>
    <property name="audio_index">0</property>
    <property name="video_index">-1</property>
    <property name="mute_on_pause">0</property>
    <property name="xml">was here</property>
    <property name="shotcut:hash">415e12090c044cdb9d6fc535b7ae5562</property>
    <property name="ignore_points">0</property>
    <property name="shotcut:caption">FUNK BRASILERO   CARDIO DANCE FITNESS ✅�.mp3</property>
    <filter id="filter1" out="00:05:22.830">
      <property name="window">75</property>
      <property name="max_gain">20dB</property>
      <property name="level">00:00:00.000=-60;00:00:00.767=0</property>
      <property name="mlt_service">volume</property>
      <property name="shotcut:filter">fadeInVolume</property>
      <property name="shotcut:animIn">24</property>
    </filter>
  </chain>
  <chain id="chain136" out="00:32:50.393">
    <property name="length">00:32:50.426</property>
    <property name="eof">pause</property>
    <property name="resource">D:/Dropbox2022/Dropbox/2023/Editar/30 Dias + Fitness/Semana4/FUNK BRASILERO   CARDIO DANCE FITNESS ✅�.mp3</property>
    <property name="mlt_service">avformat-novalidate</property>
    <property name="seekable">1</property>
    <property name="audio_index">0</property>
    <property name="video_index">-1</property>
    <property name="mute_on_pause">0</property>
    <property name="xml">was here</property>
    <property name="shotcut:hash">415e12090c044cdb9d6fc535b7ae5562</property>
    <property name="ignore_points">0</property>
    <property name="shotcut:caption">FUNK BRASILERO   CARDIO DANCE FITNESS ✅�.mp3</property>
  </chain>
  <chain id="chain137" out="00:32:50.393">
    <property name="length">00:32:50.426</property>
    <property name="eof">pause</property>
    <property name="resource">D:/Dropbox2022/Dropbox/2023/Editar/30 Dias + Fitness/Semana4/FUNK BRASILERO   CARDIO DANCE FITNESS ✅�.mp3</property>
    <property name="mlt_service">avformat-novalidate</property>
    <property name="seekable">1</property>
    <property name="audio_index">0</property>
    <property name="video_index">-1</property>
    <property name="mute_on_pause">0</property>
    <property name="xml">was here</property>
    <property name="shotcut:hash">415e12090c044cdb9d6fc535b7ae5562</property>
    <property name="ignore_points">0</property>
    <property name="shotcut:caption">FUNK BRASILERO   CARDIO DANCE FITNESS ✅�.mp3</property>
  </chain>
  <chain id="chain138" out="00:32:50.393">
    <property name="length">00:32:50.426</property>
    <property name="eof">pause</property>
    <property name="resource">D:/Dropbox2022/Dropbox/2023/Editar/30 Dias + Fitness/Semana4/FUNK BRASILERO   CARDIO DANCE FITNESS ✅�.mp3</property>
    <property name="mlt_service">avformat-novalidate</property>
    <property name="seekable">1</property>
    <property name="audio_index">0</property>
    <property name="video_index">-1</property>
    <property name="mute_on_pause">0</property>
    <property name="xml">was here</property>
    <property name="shotcut:hash">415e12090c044cdb9d6fc535b7ae5562</property>
    <property name="ignore_points">0</property>
    <property name="shotcut:caption">FUNK BRASILERO   CARDIO DANCE FITNESS ✅�.mp3</property>
  </chain>
  <playlist id="playlist2">
    <property name="shotcut:audio">1</property>
    <property name="shotcut:name">A2</property>
    <property name="shotcut:lock">0</property>
    <blank length="00:00:01.266"/>
    <entry producer="chain135" in="00:00:00.000" out="00:05:22.830"/>
    <entry producer="chain136" in="00:05:25.196" out="00:23:57.058"/>
    <entry producer="chain137" in="00:23:59.858" out="00:32:50.393"/>
    <entry producer="chain138" in="00:23:59.858" out="00:27:03.899"/>
    <filter id="filter2" out="00:35:50.626">
      <property name="window">75</property>
      <property name="max_gain">20dB</property>
      <property name="level">00:01:32.229=0;00:01:33.862=-22;00:02:14.998=-24.9375;00:02:16.164=0;00:03:00.900=0;00:03:01.933=-24.9375;00:03:12.332=-27.875;00:03:13.831=0;00:03:31.096=0;00:03:32.029=-19.0625;00:03:52.626=-19.0625;00:03:53.392=0;00:04:33.195=0;00:04:33.895=-24.9375;00:04:45.660=0;00:04:46.160=0;00:05:07.699=0;00:05:08.432=-36.6875;00:05:19.097=0;00:05:20.097=-27.875;00:05:38.694=-19.0625;00:05:39.361=0;00:06:35.928=0;00:06:36.461=-22;00:06:40.428=-27.875;00:06:41.394=0;00:06:50.326=0;00:06:55.692=0;00:07:04.099=0;00:07:04.866=-27.875;00:07:51.259=-22;00:07:52.059=0;00:08:21.630=0;00:08:22.197=-22;00:08:44.560=-22;00:08:45.194=0;00:08:47.260=-4.375;00:08:48.493=-48.4375;00:09:01.966=-13.1875;00:09:02.900=0;00:10:07.099=0;00:10:07.499=-16.125;00:10:33.928=-16.125;00:10:34.695=0;00:11:39.961=0;00:11:40.394=-22;00:11:58.625=-24.9375;00:11:59.125=0;00:12:25.263=0;00:12:25.830=-60.4336;00:12:29.529=-33.6105;00:12:58.358=-24.9375;00:12:59.125=0;00:13:37.961=0;00:13:38.394=-22;00:14:14.131=-22;00:14:14.898=0;00:14:28.863=0;00:14:34.628=0;00:14:35.462=-22;00:14:40.228=-22;00:14:40.861=0;00:15:39.294=0;00:15:40.394=-27.875;00:15:44.560=-27.875;00:15:45.560=0;00:15:48.293=0;00:15:48.693=-30.8125;00:16:01.266=-24.9375;00:16:02.266=0;00:16:15.798=0;00:16:16.631=-22;00:16:26.896=-19.0625;00:16:27.796=0;00:17:23.863=0;00:17:24.863=-22;00:17:30.762=-24.9375;00:17:31.595=0;00:17:34.428=0;00:17:35.262=-22;00:17:47.627=-19.0625;00:17:48.460=0;00:18:08.999=0;00:18:09.899=-16.125;00:18:53.592=-19.0625;00:18:54.459=0;00:19:29.029=0;00:19:29.729=-16.125;00:19:56.092=-27.875;00:19:56.959=0;00:20:02.433=0;00:20:03.333=-16.125;00:20:07.366=-19.0625;00:20:07.999=0;00:20:29.862=0;00:20:31.429=-24.9375;00:20:33.262=0;00:21:22.497=0;00:21:23.463=-24.9375;00:21:31.929=-36.6875;00:21:32.962=0;00:21:33.962=-22;00:21:54.459=-22;00:21:55.292=0;00:22:09.099=0;00:22:09.965=-16.125;00:22:20.230=-24.9375;00:22:21.130=0;00:23:13.231=0;00:23:13.831=-19.0625;00:23:19.164=-22;00:23:20.030=0;00:23:20.830=-22;00:23:24.530=-27.875;00:23:26.430=0;00:23:28.496=-30.875;00:23:41.094=-22;00:23:41.694=0;00:23:55.692=0;00:23:56.525=-22;00:24:28.663=-27.875;00:24:29.829=0;00:25:02.133=0;00:25:03.499=-24.9375;00:25:04.866=0;00:25:50.993=0;00:25:51.626=-13.1875;00:26:03.599=-23;00:26:04.233=0;00:26:25.030=0;00:26:25.596=-24.9375;00:26:29.296=-30.8125;00:26:30.162=0;00:27:07.499=0;00:27:08.832=-33.75;00:27:10.099=0;00:28:01.400=0;00:28:02.100=-22;00:28:07.566=-22;00:28:08.232=0;00:28:23.063=0;00:28:23.897=-19.0625;00:28:33.862=-19.0625;00:28:34.595=0;00:29:12.698=0;00:29:14.198=-25.3672;00:29:15.631=0;00:30:05.466=0;00:30:06.066=-22;00:30:12.298=-22;00:30:12.831=0;00:30:34.395=0;00:30:35.328=-19.0625;00:31:08.199=-24.9375;00:31:09.265=0;00:31:20.864=0;00:31:21.564=-16.125;00:31:44.760=-16.125;00:31:45.527=0;00:31:56.459=0;00:31:57.158=-16.125;00:32:12.765=-22;00:32:13.498=0;00:32:16.664=0;00:32:20.164=-19.0625;00:32:21.030=0;00:32:47.760=0;00:32:48.660=-30.8125;00:32:49.826=0;00:33:06.832=0;00:33:07.499=-22;00:33:28.563=-16.125;00:33:29.429=0;00:33:42.427=0;00:33:43.227=-24.9375;00:34:03.499=-22;00:34:04.566=0;00:34:18.297=0;00:34:18.964=-24.9375;00:34:28.396=-22;00:34:29.396=0;00:34:49.793=0;00:34:50.393=-19.0625;00:35:08.066=-27.875;00:35:08.832=0;00:35:22.830=0;00:35:23.530=-19.0625;00:35:43.327=-27.875;00:35:43.994=0</property>
      <property name="mlt_service">volume</property>
    </filter>
  </playlist>
  <playlist id="playlist3">
    <property name="shotcut:video">1</property>
    <property name="shotcut:name">V2</property>
    <blank length="00:00:00.033"/>
  </playlist>
  <tractor id="tractor4" title="Shotcut version 21.12.24" in="00:00:00.000" out="00:35:50.626">
    <property name="shotcut">1</property>
    <property name="shotcut:projectAudioChannels">2</property>
    <property name="shotcut:projectFolder">1</property>
    <properties name="shotcut:markers">
      <properties name="0">
        <property name="text">Marker 1</property>
        <property name="start">00:05:35.828</property>
        <property name="end">00:05:35.828</property>
        <property name="color">#00FF00</property>
      </properties>
      <properties name="1">
        <property name="text">Marker 2</property>
        <property name="start">00:06:37.561</property>
        <property name="end">00:06:37.561</property>
        <property name="color">#00FF00</property>
      </properties>
    </properties>
    <track producer="background"/>
    <track producer="playlist0"/>
    <track producer="playlist1" hide="video"/>
    <track producer="playlist2" hide="video"/>
    <track producer="playlist3"/>
    <transition id="transition8">
      <property name="a_track">0</property>
      <property name="b_track">1</property>
      <property name="mlt_service">mix</property>
      <property name="always_active">1</property>
      <property name="sum">1</property>
    </transition>
    <transition id="transition9">
      <property name="a_track">0</property>
      <property name="b_track">1</property>
      <property name="version">0.1</property>
      <property name="mlt_service">frei0r.cairoblend</property>
      <property name="threads">0</property>
      <property name="disable">1</property>
    </transition>
    <transition id="transition10">
      <property name="a_track">0</property>
      <property name="b_track">2</property>
      <property name="mlt_service">mix</property>
      <property name="always_active">1</property>
      <property name="sum">1</property>
    </transition>
    <transition id="transition11">
      <property name="a_track">0</property>
      <property name="b_track">3</property>
      <property name="mlt_service">mix</property>
      <property name="always_active">1</property>
      <property name="sum">1</property>
    </transition>
    <transition id="transition12">
      <property name="a_track">0</property>
      <property name="b_track">4</property>
      <property name="mlt_service">mix</property>
      <property name="always_active">1</property>
      <property name="sum">1</property>
    </transition>
    <transition id="transition13">
      <property name="a_track">1</property>
      <property name="b_track">4</property>
      <property name="version">0.1</property>
      <property name="mlt_service">frei0r.cairoblend</property>
      <property name="threads">0</property>
      <property name="disable">0</property>
    </transition>
  </tractor>
</mlt>
